<svg width="19" height="18" viewBox="0 0 19 18" fill="none" xmlns="http://www.w3.org/2000/svg">
<path d="M18.2613 4.20488L17.3824 4.01626C17.3098 3.67157 17.192 3.34503 17.0291 3.0404L17.5834 2.33064C17.6857 2.1987 17.6782 2.01362 17.5673 1.89208L17.2689 1.56532L16.9704 1.23855C16.8595 1.11701 16.6758 1.09266 16.5352 1.18254L15.7781 1.67025C15.4856 1.47632 15.1633 1.32512 14.8144 1.22483L14.7059 0.340399C14.6853 0.174803 14.5505 0.0481715 14.3822 0.0406444L13.9375 0.0204983L13.4927 0.000352441C13.3284 -0.00717462 13.1786 0.106617 13.1431 0.269556L12.9503 1.15642C12.6056 1.22904 12.2786 1.35478 11.9782 1.51374L11.2806 0.955847C11.1487 0.853567 10.9636 0.861094 10.8421 0.972008L10.5153 1.27043L10.1885 1.56886C10.067 1.67977 10.0427 1.86352 10.1325 2.0041L10.624 2.76544C10.4383 3.05413 10.2913 3.36871 10.1916 3.70566L9.30722 3.81414C9.14162 3.83473 9.01499 3.96955 9.00746 4.1378L8.98732 4.58256L8.96717 5.02732C8.95964 5.19159 9.07343 5.34147 9.23637 5.37689L10.1232 5.56972C10.1959 5.91441 10.3216 6.2414 10.4806 6.54181L9.93063 7.24382C9.82835 7.37577 9.83588 7.56085 9.9468 7.68239L10.2452 8.00915L10.5436 8.33591C10.6546 8.45745 10.8383 8.4818 10.9789 8.39192L11.7402 7.90045C12.0212 8.08198 12.3318 8.22854 12.6565 8.32772L12.7646 9.22012C12.7852 9.38572 12.92 9.51235 13.0882 9.51988L13.533 9.54002L13.9778 9.56017C14.142 9.56769 14.2919 9.4539 14.3273 9.29096L14.5159 8.41207C14.8606 8.33945 15.1872 8.22168 15.4918 8.05874L16.2016 8.61308C16.3335 8.71536 16.5186 8.70784 16.6401 8.59692L16.9669 8.2985L17.2937 8.00007C17.4152 7.88916 17.4395 7.70541 17.3497 7.56483L16.862 6.8077C17.0517 6.51923 17.1987 6.20442 17.3023 5.86792L18.1947 5.75989C18.3603 5.7393 18.4869 5.60447 18.4944 5.43622L18.5146 4.99146L18.5347 4.5467C18.5343 4.38597 18.4203 4.2403 18.2613 4.20488ZM11.8328 4.69392C11.8817 3.61689 12.7945 2.7836 13.8715 2.83252C14.9485 2.88145 15.7818 3.79421 15.7329 4.87125C15.684 5.94828 14.7712 6.78157 13.6942 6.73265C12.6171 6.6835 11.7836 5.77073 11.8328 4.69392ZM13.993 10.389C13.9753 10.389 13.9576 10.3886 13.9401 10.3879L13.4954 10.3678L13.0504 10.3476C12.479 10.3217 12.013 9.89047 11.9424 9.3224C11.9424 9.32152 11.9421 9.32063 11.9421 9.31974L11.8943 8.92457C11.8529 8.90598 11.8115 8.88672 11.7706 8.86679L11.4281 9.08795C11.4272 9.08862 11.4263 9.08906 11.4252 9.08973C11.2364 9.2106 11.0181 9.27458 10.794 9.27458C10.4666 9.27458 10.1522 9.136 9.93174 8.89469L9.63332 8.56792L9.33489 8.24116C8.95057 7.82031 8.92577 7.18737 9.276 6.73619C9.27667 6.7353 9.27755 6.7342 9.27822 6.73331L9.51775 6.42758C9.49783 6.37666 9.47901 6.3253 9.46108 6.27416L9.05949 6.18671C8.50027 6.06495 8.11307 5.56152 8.13919 4.99013L8.15934 4.54515L8.17949 4.10039C8.18192 4.04814 8.18768 3.99678 8.19653 3.94653C8.10466 3.80705 7.9477 3.71695 7.76926 3.71695H7.10223H6.43476C6.18813 3.71695 5.97162 3.89738 5.92956 4.144L5.70109 5.48515C5.18991 5.61754 4.70884 5.82785 4.26984 6.08665L3.18727 5.29874C2.98271 5.1544 2.7062 5.17853 2.53175 5.35276L2.06264 5.82187L1.59352 6.29099C1.41907 6.46544 1.39516 6.74195 1.53951 6.9465L2.32741 8.05298C2.06884 8.49797 1.87025 8.97925 1.74407 9.49043L0.42705 9.71292C0.180428 9.75499 0 9.96552 0 10.2181V10.8856V11.5531C0 11.7997 0.180428 12.0162 0.42705 12.0583L1.7682 12.2867C1.90058 12.7979 2.1109 13.279 2.3697 13.718L1.59397 14.8065C1.44962 15.0111 1.47376 15.2876 1.64798 15.4621L2.1171 15.9312L2.58621 16.4003C2.76066 16.5747 3.03717 16.5986 3.24173 16.4543L4.34821 15.6664C4.78124 15.919 5.25633 16.1173 5.74957 16.2438L5.97206 17.573C6.01413 17.8196 6.22466 18 6.47726 18H7.14473H7.81221C8.05883 18 8.27534 17.8196 8.31741 17.573L8.5399 16.2438C9.05107 16.1114 9.53214 15.913 9.97735 15.6485L11.0778 16.4302C11.2824 16.5745 11.5589 16.5504 11.7334 16.3761L12.2025 15.907L12.6716 15.4379C12.846 15.2635 12.87 14.987 12.7256 14.7824L11.9437 13.6819C12.2082 13.2369 12.4068 12.7558 12.539 12.2445L13.8682 12.022C14.1148 11.9799 14.2952 11.7694 14.2952 11.5168V10.8493V10.349C14.198 10.3751 14.0966 10.389 13.993 10.389ZM7.19477 13.7844C5.57866 13.7844 4.26851 12.4742 4.26851 10.8581C4.26851 9.24204 5.57866 7.93189 7.19477 7.93189C8.81087 7.93189 10.121 9.24204 10.121 10.8581C10.121 12.4742 8.81087 13.7844 7.19477 13.7844Z" fill="white"/>
</svg>
