<svg width="14" height="13" viewBox="0 0 14 13" fill="none" xmlns="http://www.w3.org/2000/svg">
<path d="M12.8839 2.67562C12.6222 2.34116 12.215 2.13758 11.7933 2.13758H2.93764L2.66135 1.06152C2.5014 0.436242 1.94883 0 1.309 0H-0.174217C-0.421421 0 -0.625 0.203579 -0.625 0.450783C-0.625 0.697987 -0.421421 0.901566 -0.174217 0.901566H1.309C1.52713 0.901566 1.71616 1.04698 1.77433 1.2651L3.54838 8.33222C3.70833 8.9575 4.26091 9.39374 4.90073 9.39374H10.7027C11.3426 9.39374 11.9097 8.9575 12.0551 8.33222L13.1457 3.85347C13.2475 3.44631 13.1602 3.01007 12.8839 2.67562ZM12.2587 3.64989L11.1681 8.12864C11.1099 8.34676 10.9209 8.49217 10.7027 8.49217H4.90073C4.68261 8.49217 4.49357 8.34676 4.4354 8.12864L3.1703 3.05369H11.7933C11.9388 3.05369 12.0842 3.1264 12.1714 3.24273C12.2587 3.35906 12.3023 3.50447 12.2587 3.64989Z" fill="white"/>
<path d="M5.20737 9.97461C4.37851 9.97461 3.69507 10.6581 3.69507 11.4869C3.69507 12.3158 4.37851 12.9992 5.20737 12.9992C6.03623 12.9992 6.71968 12.3158 6.71968 11.4869C6.71968 10.6581 6.03623 9.97461 5.20737 9.97461ZM5.20737 12.0831C4.87292 12.0831 4.61118 11.8214 4.61118 11.4869C4.61118 11.1525 4.87292 10.8907 5.20737 10.8907C5.54182 10.8907 5.80357 11.1525 5.80357 11.4869C5.80357 11.8068 5.52728 12.0831 5.20737 12.0831Z" fill="white"/>
<path d="M10.2093 9.97461C9.38047 9.97461 8.69702 10.6581 8.69702 11.4869C8.69702 12.3158 9.38047 12.9992 10.2093 12.9992C11.0382 12.9992 11.7216 12.3158 11.7216 11.4869C11.7071 10.6581 11.0382 9.97461 10.2093 9.97461ZM10.2093 12.0831C9.87487 12.0831 9.61313 11.8214 9.61313 11.4869C9.61313 11.1525 9.87487 10.8907 10.2093 10.8907C10.5438 10.8907 10.8055 11.1525 10.8055 11.4869C10.8055 11.8068 10.5292 12.0831 10.2093 12.0831Z" fill="white"/>
</svg>
