<svg width="16" height="16" viewBox="0 0 16 16" fill="none" xmlns="http://www.w3.org/2000/svg">
<path d="M14.7679 12.9141C14.3994 12.0414 13.8648 11.2486 13.1937 10.5801C12.5246 9.90959 11.732 9.37501 10.8597 9.00586C10.8519 9.00195 10.844 9 10.8362 8.99609C12.053 8.11719 12.844 6.68555 12.844 5.07031C12.844 2.39453 10.6761 0.226562 8.00029 0.226562C5.32451 0.226562 3.15654 2.39453 3.15654 5.07031C3.15654 6.68555 3.94756 8.11719 5.16436 8.99805C5.15654 9.00195 5.14873 9.00391 5.14092 9.00781C4.26592 9.37695 3.48076 9.90625 2.80693 10.582C2.13644 11.2511 1.60186 12.0437 1.23271 12.916C0.870063 13.77 0.674476 14.6856 0.656543 15.6133C0.656022 15.6341 0.659678 15.6549 0.667297 15.6743C0.674915 15.6937 0.686342 15.7114 0.700903 15.7263C0.715465 15.7412 0.732866 15.7531 0.752082 15.7612C0.771299 15.7693 0.791941 15.7734 0.812793 15.7734H1.98467C2.07061 15.7734 2.13897 15.7051 2.14092 15.6211C2.17998 14.1133 2.78545 12.7012 3.85576 11.6309C4.96318 10.5234 6.43389 9.91406 8.00029 9.91406C9.5667 9.91406 11.0374 10.5234 12.1448 11.6309C13.2151 12.7012 13.8206 14.1133 13.8597 15.6211C13.8616 15.707 13.93 15.7734 14.0159 15.7734H15.1878C15.2086 15.7734 15.2293 15.7693 15.2485 15.7612C15.2677 15.7531 15.2851 15.7412 15.2997 15.7263C15.3142 15.7114 15.3257 15.6937 15.3333 15.6743C15.3409 15.6549 15.3446 15.6341 15.344 15.6133C15.3245 14.6797 15.1312 13.7715 14.7679 12.9141ZM8.00029 8.42969C7.10381 8.42969 6.26006 8.08008 5.62529 7.44531C4.99053 6.81055 4.64092 5.9668 4.64092 5.07031C4.64092 4.17383 4.99053 3.33008 5.62529 2.69531C6.26006 2.06055 7.10381 1.71094 8.00029 1.71094C8.89678 1.71094 9.74053 2.06055 10.3753 2.69531C11.0101 3.33008 11.3597 4.17383 11.3597 5.07031C11.3597 5.9668 11.0101 6.81055 10.3753 7.44531C9.74053 8.08008 8.89678 8.42969 8.00029 8.42969Z" fill="#595959"/>
</svg>
