<svg width="30" height="30" viewBox="0 0 30 30" fill="none" xmlns="http://www.w3.org/2000/svg">
<path d="M13.4064 15C13.4064 15.4227 13.5744 15.8281 13.8732 16.127C14.1721 16.4258 14.5775 16.5938 15.0002 16.5938C15.4229 16.5938 15.8283 16.4258 16.1271 16.127C16.426 15.8281 16.5939 15.4227 16.5939 15C16.5939 14.5773 16.426 14.1719 16.1271 13.873C15.8283 13.5742 15.4229 13.4062 15.0002 13.4062C14.5775 13.4062 14.1721 13.5742 13.8732 13.873C13.5744 14.1719 13.4064 14.5773 13.4064 15ZM20.0471 15C20.0471 15.4227 20.215 15.8281 20.5139 16.127C20.8127 16.4258 21.2181 16.5938 21.6408 16.5938C22.0635 16.5938 22.4689 16.4258 22.7678 16.127C23.0667 15.8281 23.2346 15.4227 23.2346 15C23.2346 14.5773 23.0667 14.1719 22.7678 13.873C22.4689 13.5742 22.0635 13.4062 21.6408 13.4062C21.2181 13.4062 20.8127 13.5742 20.5139 13.873C20.215 14.1719 20.0471 14.5773 20.0471 15ZM6.76581 15C6.76581 15.4227 6.93373 15.8281 7.23261 16.127C7.5315 16.4258 7.93687 16.5938 8.35956 16.5938C8.78225 16.5938 9.18763 16.4258 9.48652 16.127C9.7854 15.8281 9.95331 15.4227 9.95331 15C9.95331 14.5773 9.7854 14.1719 9.48652 13.873C9.18763 13.5742 8.78225 13.4062 8.35956 13.4062C7.93687 13.4062 7.5315 13.5742 7.23261 13.873C6.93373 14.1719 6.76581 14.5773 6.76581 15ZM28.7197 9.23594C27.9693 7.45293 26.8935 5.85254 25.5223 4.47793C24.1606 3.11128 22.5441 2.02496 20.7642 1.28047C18.9381 0.513477 16.999 0.125 15.0002 0.125H14.9338C12.9217 0.134961 10.9726 0.533398 9.13984 1.31699C7.37528 2.06911 5.77392 3.15737 4.42499 4.52109C3.06699 5.89238 2.00117 7.48613 1.26406 9.2625C0.500384 11.102 0.115227 13.0576 0.125188 15.0697C0.136455 17.3756 0.681978 19.6475 1.71894 21.707V26.7539C1.71894 27.159 1.87985 27.5475 2.16629 27.8339C2.45272 28.1203 2.84121 28.2812 3.24628 28.2812H8.29648C10.356 29.3182 12.6279 29.8637 14.9338 29.875H15.0035C16.9924 29.875 18.9215 29.4898 20.7377 28.7361C22.5085 28.0005 24.119 26.9269 25.4791 25.5752C26.8504 24.2172 27.9295 22.6301 28.6832 20.8604C29.4668 19.0275 29.8652 17.0785 29.8752 15.0664C29.8851 13.0443 29.4934 11.082 28.7197 9.23594ZM23.7027 23.7789C21.3752 26.0832 18.2873 27.3516 15.0002 27.3516H14.9437C12.9416 27.3416 10.9527 26.8436 9.19628 25.9072L8.91738 25.7578H4.24238V21.0828L4.09296 20.8039C3.15663 19.0475 2.65859 17.0586 2.64863 15.0564C2.63534 11.7461 3.90038 8.63828 6.22128 6.29746C8.53886 3.95664 11.6367 2.66172 14.9471 2.64844H15.0035C16.6637 2.64844 18.274 2.97051 19.7914 3.60801C21.2723 4.22891 22.6004 5.12207 23.7426 6.26426C24.8814 7.40312 25.7779 8.73457 26.3988 10.2154C27.043 11.7494 27.365 13.3764 27.3584 15.0564C27.3385 18.3635 26.0402 21.4613 23.7027 23.7789Z" fill="white"/>
</svg>
