<svg width="57" height="61" viewBox="0 0 57 61" fill="none" xmlns="http://www.w3.org/2000/svg">
<circle cx="24" cy="24" r="24" fill="#FFF1F0"/>
<path d="M26.3753 33C26.3753 33.6962 26.6519 34.3639 27.1442 34.8562C27.6364 35.3484 28.3041 35.625 29.0003 35.625C29.6965 35.625 30.3642 35.3484 30.8565 34.8562C31.3487 34.3639 31.6253 33.6962 31.6253 33C31.6253 32.3038 31.3487 31.6361 30.8565 31.1438C30.3642 30.6516 29.6965 30.375 29.0003 30.375C28.3041 30.375 27.6364 30.6516 27.1442 31.1438C26.6519 31.6361 26.3753 32.3038 26.3753 33ZM37.3128 33C37.3128 33.6962 37.5894 34.3639 38.0817 34.8562C38.5739 35.3484 39.2416 35.625 39.9378 35.625C40.634 35.625 41.3017 35.3484 41.794 34.8562C42.2862 34.3639 42.5628 33.6962 42.5628 33C42.5628 32.3038 42.2862 31.6361 41.794 31.1438C41.3017 30.6516 40.634 30.375 39.9378 30.375C39.2416 30.375 38.5739 30.6516 38.0817 31.1438C37.5894 31.6361 37.3128 32.3038 37.3128 33ZM15.4378 33C15.4378 33.6962 15.7144 34.3639 16.2067 34.8562C16.6989 35.3484 17.3666 35.625 18.0628 35.625C18.759 35.625 19.4267 35.3484 19.919 34.8562C20.4112 34.3639 20.6878 33.6962 20.6878 33C20.6878 32.3038 20.4112 31.6361 19.919 31.1438C19.4267 30.6516 18.759 30.375 18.0628 30.375C17.3666 30.375 16.6989 30.6516 16.2067 31.1438C15.7144 31.6361 15.4378 32.3038 15.4378 33ZM51.5972 23.5062C50.3612 20.5695 48.5894 17.9336 46.3308 15.6695C44.088 13.4186 41.4255 11.6293 38.4941 10.4031C35.4862 9.13984 32.2925 8.5 29.0003 8.5H28.8909C25.5769 8.51641 22.3667 9.17266 19.348 10.4633C16.4416 11.7021 13.8041 13.4945 11.5823 15.7406C9.34562 17.9992 7.59015 20.6242 6.37609 23.55C5.11828 26.5797 4.4839 29.8008 4.50031 33.1148C4.51887 36.9127 5.41737 40.6546 7.12531 44.0469V52.3594C7.12531 53.0266 7.39035 53.6664 7.86212 54.1382C8.33389 54.61 8.97375 54.875 9.64094 54.875H17.9589C21.3511 56.5829 25.093 57.4814 28.8909 57.5H29.0058C32.2816 57.5 35.4589 56.8656 38.4503 55.6242C41.3669 54.4126 44.0195 52.6442 46.2597 50.418C48.5183 48.1813 50.2956 45.5672 51.537 42.6523C52.8277 39.6336 53.4839 36.4234 53.5003 33.1094C53.5167 29.7789 52.8714 26.5469 51.5972 23.5062ZM43.3339 47.4594C39.5003 51.2547 34.4144 53.3438 29.0003 53.3438H28.9073C25.6097 53.3273 22.3339 52.507 19.4409 50.9648L18.9816 50.7188H11.2816V43.0187L11.0355 42.5594C9.49328 39.6664 8.67297 36.3906 8.65656 33.093C8.63469 27.6406 10.7183 22.5219 14.5409 18.6664C18.3581 14.8109 23.4605 12.6781 28.9128 12.6562H29.0058C31.7402 12.6562 34.3925 13.1867 36.8917 14.2367C39.3308 15.2594 41.5183 16.7305 43.3995 18.6117C45.2753 20.4875 46.7519 22.6805 47.7745 25.1195C48.8355 27.6461 49.3659 30.3258 49.355 33.093C49.3222 38.5398 47.1839 43.6422 43.3339 47.4594Z" fill="#FF4D4F"/>
</svg>
