<svg width="135" height="33" viewBox="0 0 135 33" fill="none" xmlns="http://www.w3.org/2000/svg">
<path d="M4.4165 25.3308H4.46492L5.97583 30.3982H6.99763L8.88626 23.6774H7.75793L6.46494 28.9404H6.4262L4.94435 23.6774H3.93708L2.46007 28.9404H2.42133L1.12834 23.6774H0L1.88379 30.3982H2.91043L4.4165 25.3308Z" fill="#262626"/>
<path d="M9.46273 30.3982H10.5087V27.5664C10.5087 26.7933 10.9833 26.281 11.7582 26.281C12.4942 26.281 12.872 26.7141 12.872 27.436V30.3982H13.9228V27.2404C13.9228 26.1319 13.2545 25.4147 12.1359 25.4147C11.3611 25.4147 10.8041 25.7453 10.5233 26.3182H10.4991V23.6774H9.46273V30.3982Z" fill="#262626"/>
<path d="M16.8673 26.2204C17.5986 26.2204 18.0925 26.7467 18.1167 27.4966H15.5695C15.6228 26.756 16.1361 26.2204 16.8673 26.2204ZM18.1119 28.959C17.9715 29.3875 17.5308 29.6763 16.9351 29.6763C16.0974 29.6763 15.5647 29.1127 15.5647 28.2604V28.1998H19.1628V27.8552C19.1628 26.3694 18.2814 25.41 16.8673 25.41C15.4291 25.41 14.509 26.4347 14.509 27.9716C14.509 29.5179 15.4145 30.4913 16.9109 30.4913C18.078 30.4913 18.9594 29.8532 19.1046 28.959H18.1119Z" fill="#262626"/>
<path d="M19.778 30.3982H20.824V27.464C20.824 26.77 21.2404 26.3368 21.9136 26.3368C22.117 26.3368 22.301 26.3601 22.3833 26.3927V25.4566C22.3058 25.4426 22.1751 25.4193 22.025 25.4193C21.4245 25.4193 20.9693 25.7593 20.7998 26.3322H20.7756V25.4985H19.778V30.3982Z" fill="#262626"/>
<path d="M24.7419 26.2204C25.4731 26.2204 25.9671 26.7467 25.9913 27.4966H23.4441C23.4973 26.756 24.0106 26.2204 24.7419 26.2204ZM25.9864 28.959C25.846 29.3875 25.4053 29.6763 24.8097 29.6763C23.9719 29.6763 23.4392 29.1127 23.4392 28.2604V28.1998H27.0373V27.8552C27.0373 26.3694 26.1559 25.41 24.7419 25.41C23.3036 25.41 22.3835 26.4347 22.3835 27.9716C22.3835 29.5179 23.2891 30.4913 24.7855 30.4913C25.9525 30.4913 26.8339 29.8532 26.9792 28.959H25.9864Z" fill="#262626"/>
<path d="M30.6794 30.3982V23.6774H29.5946V30.3982H30.6794Z" fill="#262626"/>
<path d="M33.5561 30.482C34.297 30.482 34.8781 30.1234 35.1784 29.5645H35.1977V30.3982H36.2147V23.6774H35.1638V26.3136H35.1445C34.8588 25.7733 34.2776 25.4193 33.5464 25.4193C32.2679 25.4193 31.4156 26.4021 31.4156 27.9483C31.4156 29.4946 32.2679 30.482 33.5561 30.482ZM33.8321 26.267C34.636 26.267 35.1735 26.933 35.1735 27.9483C35.1735 28.973 34.636 29.6297 33.8321 29.6297C33.004 29.6297 32.4859 28.9823 32.4859 27.9483C32.4859 26.919 33.004 26.267 33.8321 26.267Z" fill="#262626"/>
<path d="M39.2222 26.2204C39.9534 26.2204 40.4474 26.7467 40.4716 27.4966H37.9244C37.9776 26.756 38.4909 26.2204 39.2222 26.2204ZM40.4667 28.959C40.3263 29.3875 39.8856 29.6763 39.29 29.6763C38.4522 29.6763 37.9195 29.1127 37.9195 28.2604V28.1998H41.5176V27.8552C41.5176 26.3694 40.6362 25.41 39.2222 25.41C37.7839 25.41 36.8638 26.4347 36.8638 27.9716C36.8638 29.5179 37.7694 30.4913 39.2658 30.4913C40.4328 30.4913 41.3142 29.8532 41.4595 28.959H40.4667Z" fill="#262626"/>
<path d="M43.9149 29.6856C43.3532 29.6856 42.9851 29.4061 42.9851 28.9776C42.9851 28.5585 43.3386 28.293 43.9633 28.2511L45.2176 28.1765V28.5631C45.2176 29.2012 44.6461 29.6856 43.9149 29.6856ZM43.6243 30.482C44.2926 30.482 44.9367 30.1373 45.2321 29.5924H45.2563V30.3982H46.2588V27.0215C46.2588 26.0388 45.4694 25.41 44.2345 25.41C42.9754 25.41 42.1909 26.0621 42.1328 26.947H43.1207C43.2127 26.5092 43.5905 26.2297 44.1958 26.2297C44.835 26.2297 45.2176 26.5557 45.2176 27.1007V27.4779L43.8229 27.5571C42.6122 27.6223 41.9294 28.1486 41.9294 29.0056C41.9294 29.8858 42.6268 30.482 43.6243 30.482Z" fill="#262626"/>
<path d="M46.9853 26.8864C46.9853 27.5711 47.4502 28.0322 48.3703 28.2464L49.2808 28.4607C49.8134 28.5911 50.0072 28.7634 50.0072 29.0754C50.0072 29.4713 49.6197 29.7228 48.9902 29.7228C48.351 29.7228 47.9732 29.462 47.8909 28.9916H46.8546C46.9369 29.8905 47.736 30.4913 48.9418 30.4913C50.1912 30.4913 51.058 29.8765 51.058 28.9823C51.058 28.2604 50.6706 27.8878 49.644 27.6503L48.7868 27.4593C48.259 27.3335 48.0071 27.1286 48.0071 26.8259C48.0071 26.4393 48.3849 26.1738 48.9515 26.1738C49.5374 26.1738 49.9103 26.4486 49.9587 26.8911H50.9418C50.9079 26.0201 50.1137 25.41 48.9805 25.41C47.7892 25.41 46.9853 26.0108 46.9853 26.8864Z" fill="#262626"/>
<path d="M56.4192 30.3982C57.9059 30.3982 58.8018 29.6809 58.8018 28.4979C58.8018 27.6037 58.1626 26.9563 57.2134 26.8538V26.8166C57.9108 26.7048 58.458 26.0667 58.458 25.3541C58.458 24.3388 57.6444 23.6774 56.4047 23.6774H53.6153V30.3982H56.4192ZM54.7001 24.5298H56.1432C56.9277 24.5298 57.3732 24.8744 57.3732 25.4985C57.3732 26.1645 56.8551 26.5371 55.9156 26.5371H54.7001V24.5298ZM54.7001 29.5458V27.3335H56.1335C57.1601 27.3335 57.6928 27.7061 57.6928 28.4327C57.6928 29.1593 57.1747 29.5458 56.1964 29.5458H54.7001Z" fill="#262626"/>
<path d="M61.5429 26.2204C62.2742 26.2204 62.7681 26.7467 62.7923 27.4966H60.2451C60.2984 26.756 60.8117 26.2204 61.5429 26.2204ZM62.7875 28.959C62.6471 29.3875 62.2064 29.6763 61.6107 29.6763C60.7729 29.6763 60.2403 29.1127 60.2403 28.2604V28.1998H63.8383V27.8552C63.8383 26.3694 62.957 25.41 61.5429 25.41C60.1047 25.41 59.1846 26.4347 59.1846 27.9716C59.1846 29.5179 60.0901 30.4913 61.5865 30.4913C62.7536 30.4913 63.635 29.8532 63.7802 28.959H62.7875Z" fill="#262626"/>
<path d="M68.8265 27.1845C68.7345 26.2204 67.9354 25.41 66.6231 25.41C65.1751 25.41 64.226 26.3927 64.226 27.9483C64.226 29.5319 65.1751 30.4913 66.6328 30.4913C67.8579 30.4913 68.7248 29.7834 68.8362 28.7401H67.8289C67.7078 29.3083 67.2865 29.6483 66.6424 29.6483C65.8289 29.6483 65.2913 29.0242 65.2913 27.9483C65.2913 26.8957 65.824 26.2484 66.6328 26.2484C67.3156 26.2484 67.7224 26.6629 67.8289 27.1845H68.8265Z" fill="#262626"/>
<path d="M71.5676 30.4913C73.0252 30.4913 73.9841 29.5272 73.9841 27.9483C73.9841 26.3741 73.0204 25.41 71.5676 25.41C70.1148 25.41 69.1511 26.3741 69.1511 27.9483C69.1511 29.5272 70.11 30.4913 71.5676 30.4913ZM71.5676 29.6623C70.7492 29.6623 70.2165 29.0382 70.2165 27.9483C70.2165 26.8631 70.7492 26.239 71.5676 26.239C72.386 26.239 72.9187 26.8631 72.9187 27.9483C72.9187 29.0382 72.3909 29.6623 71.5676 29.6623Z" fill="#262626"/>
<path d="M74.5945 30.3982H75.6405V27.3708C75.6405 26.742 76.0812 26.2763 76.701 26.2763C77.2918 26.2763 77.6647 26.6349 77.6647 27.1985V30.3982H78.6913V27.3382C78.6913 26.7188 79.1223 26.2763 79.7422 26.2763C80.3621 26.2763 80.7156 26.6396 80.7156 27.273V30.3982H81.7664V27.0308C81.7664 26.0574 81.1078 25.4147 80.1006 25.4147C79.3742 25.4147 78.7737 25.778 78.5122 26.3741H78.488C78.2846 25.764 77.7712 25.4147 77.0642 25.4147C76.3766 25.4147 75.8439 25.778 75.6163 26.3229H75.592V25.4985H74.5945V30.3982Z" fill="#262626"/>
<path d="M84.711 26.2204C85.4422 26.2204 85.9361 26.7467 85.9604 27.4966H83.4131C83.4664 26.756 83.9797 26.2204 84.711 26.2204ZM85.9555 28.959C85.8151 29.3875 85.3744 29.6763 84.7787 29.6763C83.941 29.6763 83.4083 29.1127 83.4083 28.2604V28.1998H87.0064V27.8552C87.0064 26.3694 86.125 25.41 84.711 25.41C83.2727 25.41 82.3526 26.4347 82.3526 27.9716C82.3526 29.5179 83.2582 30.4913 84.7545 30.4913C85.9216 30.4913 86.803 29.8532 86.9483 28.959H85.9555Z" fill="#262626"/>
<path d="M90.6484 24.553H92.14C92.9777 24.553 93.4862 25.0095 93.4862 25.7593C93.4862 26.5278 93.0068 26.9703 92.169 26.9703H90.6484V24.553ZM90.6484 27.8133H92.14L93.5637 30.3982H94.8131L93.2489 27.6503C94.1012 27.3755 94.6049 26.6396 94.6049 25.7314C94.6049 24.4785 93.709 23.6774 92.2707 23.6774H89.5637V30.3982H90.6484V27.8133Z" fill="#262626"/>
<path d="M97.4429 26.2204C98.1741 26.2204 98.6681 26.7467 98.6923 27.4966H96.145C96.1983 26.756 96.7116 26.2204 97.4429 26.2204ZM98.6874 28.959C98.547 29.3875 98.1063 29.6763 97.5107 29.6763C96.6729 29.6763 96.1402 29.1127 96.1402 28.2604V28.1998H99.7383V27.8552C99.7383 26.3694 98.8569 25.41 97.4429 25.41C96.0046 25.41 95.0845 26.4347 95.0845 27.9716C95.0845 29.5179 95.9901 30.4913 97.4865 30.4913C98.6535 30.4913 99.5349 29.8532 99.6802 28.959H98.6874Z" fill="#262626"/>
<path d="M102.136 29.6856C101.574 29.6856 101.206 29.4061 101.206 28.9776C101.206 28.5585 101.559 28.293 102.184 28.2511L103.438 28.1765V28.5631C103.438 29.2012 102.867 29.6856 102.136 29.6856ZM101.845 30.482C102.513 30.482 103.157 30.1373 103.453 29.5924H103.477V30.3982H104.479V27.0215C104.479 26.0388 103.69 25.41 102.455 25.41C101.196 25.41 100.412 26.0621 100.353 26.947H101.341C101.433 26.5092 101.811 26.2297 102.416 26.2297C103.056 26.2297 103.438 26.5557 103.438 27.1007V27.4779L102.044 27.5571C100.833 27.6223 100.15 28.1486 100.15 29.0056C100.15 29.8858 100.847 30.482 101.845 30.482Z" fill="#262626"/>
<path d="M105.337 30.3982H106.383V23.6774H105.337V30.3982Z" fill="#262626"/>
<path d="M107.293 30.3982H108.339V25.4985H107.293V30.3982ZM107.816 24.7813C108.155 24.7813 108.427 24.5251 108.427 24.2084C108.427 23.887 108.155 23.6309 107.816 23.6309C107.482 23.6309 107.211 23.887 107.211 24.2084C107.211 24.5251 107.482 24.7813 107.816 24.7813Z" fill="#262626"/>
<path d="M109.516 24.3388V25.4985H108.775V26.2949H109.516V29.108C109.516 30.0535 109.918 30.4308 110.95 30.4308C111.182 30.4308 111.415 30.4121 111.531 30.3842V29.5878C111.463 29.6017 111.294 29.611 111.187 29.611C110.761 29.611 110.567 29.4201 110.567 28.9963V26.2949H111.536V25.4985H110.567V24.3388H109.516Z" fill="#262626"/>
<path d="M112.703 32.2239C113.764 32.2239 114.262 31.842 114.698 30.6543L116.611 25.4985H115.507L114.214 29.4853H114.199L112.906 25.4985H111.773L113.613 30.4028C113.613 30.4075 113.521 30.6962 113.521 30.7056C113.362 31.2086 113.105 31.4042 112.616 31.4042C112.529 31.4042 112.354 31.4042 112.277 31.3855V32.2006C112.354 32.2146 112.621 32.2239 112.703 32.2239Z" fill="#262626"/>
<path d="M122.363 5.40829C123.529 5.40829 124.22 4.84235 124.22 3.89037C124.22 3.17076 123.741 2.65355 122.997 2.55985V2.52987C123.525 2.43617 123.943 1.91145 123.943 1.34926C123.943 0.539705 123.309 0 122.371 0H120.294V5.40829H122.363ZM120.977 0.595924H122.215C122.88 0.595924 123.252 0.892012 123.252 1.42797C123.252 2.01265 122.811 2.33122 122.003 2.33122H120.977V0.595924ZM120.977 4.81237V2.91216H122.196C123.069 2.91216 123.517 3.23073 123.517 3.85664C123.517 4.48255 123.085 4.81237 122.261 4.81237H120.977Z" fill="#8C8C8C"/>
<path d="M126.475 2.0089C127.098 2.0089 127.512 2.47365 127.527 3.12579H125.382C125.423 2.47739 125.856 2.0089 126.475 2.0089ZM127.512 4.2914C127.402 4.6587 127.033 4.90981 126.532 4.90981C125.822 4.90981 125.378 4.41883 125.378 3.67299V3.63551H128.21V3.38815C128.21 2.20754 127.553 1.44296 126.487 1.44296C125.397 1.44296 124.698 2.26376 124.698 3.47435C124.698 4.69993 125.385 5.47575 126.517 5.47575C127.379 5.47575 128.047 4.97353 128.161 4.2914H127.512Z" fill="#8C8C8C"/>
<path d="M129.091 0.569688V1.51042H128.503V2.04638H129.091V4.39634C129.091 5.14593 129.372 5.43827 130.097 5.43827C130.253 5.43827 130.435 5.42703 130.515 5.40829V4.86109C130.469 4.86859 130.318 4.87983 130.242 4.87983C129.904 4.87983 129.752 4.71867 129.752 4.36261V2.04638H130.519V1.51042H129.752V0.569688H129.091Z" fill="#8C8C8C"/>
<path d="M132.451 4.92106C131.977 4.92106 131.662 4.67744 131.662 4.30639C131.662 3.93909 131.965 3.70672 132.497 3.67299L133.552 3.60927V3.92785C133.552 4.49004 133.074 4.92106 132.451 4.92106ZM132.303 5.47575C132.835 5.47575 133.336 5.18341 133.571 4.73741H133.587V5.40829H134.213V2.71351C134.213 1.93769 133.628 1.44296 132.702 1.44296C131.768 1.44296 131.183 1.96018 131.138 2.63481H131.775C131.859 2.25252 132.178 2.0164 132.687 2.0164C133.233 2.0164 133.552 2.30124 133.552 2.77723V3.1033L132.421 3.16702C131.51 3.21949 130.99 3.63926 130.99 4.30639C130.99 5.00726 131.517 5.47575 132.303 5.47575Z" fill="#8C8C8C"/>
<path d="M6.47692 17.382C9.91403 17.382 12.3718 15.3432 12.5288 12.2488H9.26727C9.05476 13.7735 7.97373 14.7297 6.48616 14.7297C4.61977 14.7297 3.45559 13.1871 3.45559 10.634C3.45559 8.10803 4.62901 6.56537 6.47692 6.56537C7.96449 6.56537 9.08248 7.57577 9.24879 9.1094H12.5103C12.4087 6.03311 9.84936 3.91309 6.47692 3.91309C2.50392 3.91309 0 6.39397 0 10.643C0 14.9011 2.48544 17.382 6.47692 17.382Z" fill="#262626"/>
<path d="M20.3362 3.91309C16.2986 3.91309 13.7484 6.50222 13.7484 10.6521C13.7484 14.8019 16.2893 17.382 20.3362 17.382C24.3739 17.382 26.9148 14.8019 26.9148 10.6521C26.9148 6.50222 24.3739 3.91309 20.3362 3.91309ZM20.3362 6.60146C22.2304 6.60146 23.4685 8.17118 23.4685 10.6521C23.4685 13.1239 22.2304 14.6936 20.3362 14.6936C18.4329 14.6936 17.204 13.1239 17.204 10.6521C17.204 8.17118 18.4421 6.60146 20.3362 6.60146Z" fill="#262626"/>
<path d="M31.784 17.1565V9.51536H31.858L37.5403 17.1565H40.2198V4.13862H37.0044V11.7076H36.9305L31.2759 4.13862H28.5687V17.1565H31.784Z" fill="#262626"/>
<path d="M48.3506 17.382C51.7877 17.382 54.2454 15.3432 54.4025 12.2488H51.1409C50.9284 13.7735 49.8474 14.7297 48.3598 14.7297C46.4934 14.7297 45.3292 13.1871 45.3292 10.634C45.3292 8.10803 46.5026 6.56537 48.3506 6.56537C49.8381 6.56537 50.9561 7.57577 51.1224 9.1094H54.384C54.2823 6.03311 51.723 3.91309 48.3506 3.91309C44.3775 3.91309 41.8736 6.39397 41.8736 10.643C41.8736 14.9011 44.3591 17.382 48.3506 17.382Z" fill="#262626"/>
<path d="M65.1296 14.4861H59.3826V11.8339H64.7877V9.39808H59.3826V6.80895H65.1296V4.13862H55.9917V17.1565H65.1296V14.4861Z" fill="#262626"/>
<path d="M67.0422 4.13862V17.1565H70.4331V13.3404H72.6136C75.5795 13.3404 77.6214 11.5271 77.6214 8.74854C77.6214 5.95192 75.6811 4.13862 72.8169 4.13862H67.0422ZM70.4331 6.67363H71.9206C73.3435 6.67363 74.1936 7.40436 74.1936 8.75757C74.1936 10.1198 73.3435 10.8505 71.9022 10.8505H70.4331V6.67363Z" fill="#262626"/>
<path d="M85.6044 17.1565V6.80895H89.2818V4.13862H78.5454V6.80895H82.2227V17.1565H85.6044Z" fill="#262626"/>
<path fill-rule="evenodd" clip-rule="evenodd" d="M92.5853 21.1084V0L94.5293 0V21.1084H92.5853Z" fill="#262626"/>
<path fill-rule="evenodd" clip-rule="evenodd" d="M114.971 21.1084V0L116.915 0V21.1084H114.971Z" fill="#262626"/>
<path d="M98.3799 17.1565H101.983L104.58 12.9345H104.654L107.241 17.1565H111.047L106.843 10.6611V10.598L111.084 4.13867H107.324L104.857 8.5411H104.792L102.344 4.13867H98.3891L102.455 10.5619V10.6341L98.3799 17.1565Z" fill="#262626"/>
</svg>
