<svg width="11" height="12" viewBox="0 0 11 12" fill="none" xmlns="http://www.w3.org/2000/svg">
<path d="M10.5279 0.306335C10.1603 -0.102073 9.56332 -0.102073 9.19565 0.3068L5.40195 4.52058L1.60846 0.3068C1.24017 -0.102305 0.643651 -0.102073 0.276194 0.306335C-0.0918902 0.714975 -0.0920997 1.37698 0.275776 1.78539L4.0701 6.0001L0.275776 10.2146C-0.0920997 10.623 -0.0918902 11.2852 0.276194 11.6936C0.460027 11.898 0.70102 11.9998 0.942222 11.9998C1.18342 11.9998 1.42484 11.8977 1.60867 11.6932L5.40216 7.47939L9.19565 11.6934C9.37969 11.898 9.62069 12 9.8621 12C10.1031 12 10.3443 11.898 10.5281 11.6939C10.8962 11.2855 10.8964 10.6232 10.5285 10.2148L6.7338 6.0001L10.5283 1.78539C10.8962 1.37721 10.896 0.714975 10.5279 0.306335Z" fill="#595959"/>
</svg>
