<svg width="17" height="17" viewBox="0 0 17 17" fill="none" xmlns="http://www.w3.org/2000/svg">
<path d="M5.78333 0H1.66667C0.746192 0 0 0.746192 0 1.66667V4.09815C0 5.01862 0.746192 5.76481 1.66667 5.76481H5.78333C6.70381 5.76481 7.45 5.01862 7.45 4.09815V1.66667C7.45 0.746192 6.70381 0 5.78333 0Z" fill="white"/>
<path d="M15.0001 0H10.8835C9.96299 0 9.2168 0.746192 9.2168 1.66667V7.37778C9.2168 8.29825 9.96299 9.04445 10.8835 9.04445H15.0001C15.9206 9.04445 16.6668 8.29825 16.6668 7.37778V1.66667C16.6668 0.746192 15.9206 0 15.0001 0Z" fill="white"/>
<path d="M5.78333 7.61621H1.66667C0.746192 7.61621 0 8.3624 0 9.28288V14.994C0 15.9145 0.746192 16.6607 1.66667 16.6607H5.78333C6.70381 16.6607 7.45 15.9145 7.45 14.994V9.28288C7.45 8.3624 6.70381 7.61621 5.78333 7.61621Z" fill="white"/>
<path d="M15.0001 10.8945H10.8835C9.96299 10.8945 9.2168 11.6407 9.2168 12.5612V14.9927C9.2168 15.9132 9.96299 16.6593 10.8835 16.6593H15.0001C15.9206 16.6593 16.6668 15.9132 16.6668 14.9927V12.5612C16.6668 11.6407 15.9206 10.8945 15.0001 10.8945Z" fill="white"/>
</svg>
