<svg width="15" height="22" viewBox="0 0 15 22" fill="none" xmlns="http://www.w3.org/2000/svg">
<g clip-path="url(#clip0)">
<path d="M7.5 4.875C4.11758 4.875 1.375 7.61758 1.375 11C1.375 14.3824 4.11758 17.125 7.5 17.125C10.8824 17.125 13.625 14.3824 13.625 11C13.625 7.61758 10.8824 4.875 7.5 4.875ZM7.5 16.0859C4.6918 16.0859 2.41406 13.8082 2.41406 11C2.41406 8.1918 4.6918 5.91406 7.5 5.91406C10.3082 5.91406 12.5859 8.1918 12.5859 11C12.5859 13.8082 10.3082 16.0859 7.5 16.0859ZM8.15215 10.6828L7.80488 10.6021V8.76602C8.32441 8.83711 8.6457 9.1625 8.70039 9.56172C8.70723 9.61641 8.75371 9.65605 8.8084 9.65605H9.42227C9.48652 9.65605 9.53711 9.6 9.53164 9.53574C9.44824 8.68398 8.74688 8.13711 7.81035 8.04277V7.5957C7.81035 7.53555 7.76113 7.48633 7.70098 7.48633H7.3168C7.25664 7.48633 7.20742 7.53555 7.20742 7.5957V8.04688C6.23945 8.14121 5.48203 8.67578 5.48203 9.67383C5.48203 10.598 6.16289 11.0438 6.87793 11.2146L7.21563 11.3008V13.2518C6.61133 13.1711 6.27227 12.8484 6.20254 12.4137C6.19434 12.3617 6.14785 12.3234 6.09453 12.3234H5.46289C5.39863 12.3234 5.34805 12.3781 5.35352 12.4424C5.41504 13.1943 5.98516 13.8861 7.20195 13.975V14.4043C7.20195 14.4645 7.25117 14.5137 7.31133 14.5137H7.69961C7.75977 14.5137 7.80898 14.4645 7.80898 14.4029L7.80625 13.9695C8.87676 13.8752 9.64238 13.3023 9.64238 12.2742C9.64102 11.3254 9.03809 10.9016 8.15215 10.6828ZM7.21426 10.4613C7.1377 10.4395 7.07344 10.4189 7.00918 10.393C6.54707 10.2262 6.33242 9.95684 6.33242 9.60957C6.33242 9.11328 6.7084 8.83027 7.21426 8.76602V10.4613ZM7.80488 13.2559V11.4279C7.84727 11.4402 7.88555 11.4498 7.92519 11.458C8.57187 11.6549 8.78926 11.9283 8.78926 12.348C8.78926 12.8826 8.3873 13.2039 7.80488 13.2559Z" fill="white"/>
</g>
<defs>
<clipPath id="clip0">
<rect width="14" height="22" fill="white" transform="translate(0.5)"/>
</clipPath>
</defs>
</svg>
