<svg width="61" height="35" viewBox="0 0 61 35" fill="none" xmlns="http://www.w3.org/2000/svg">
<path d="M15.6444 18.9256L26.9947 29.6082L57.5353 0.559862C58.347 -0.212149 59.6328 -0.182022 60.4072 0.627153C61.1816 1.43633 61.1513 2.71813 60.3397 3.49015L28.4042 33.8652C27.6224 34.6088 26.3934 34.612 25.6076 33.8725L12.8556 21.8705C12.0399 21.1028 12.0029 19.8212 12.773 19.0079C13.5431 18.1947 14.8287 18.1578 15.6444 18.9256ZM0.668083 21.8705C-0.147648 21.1028 -0.184625 19.8212 0.585493 19.0079C1.35561 18.1947 2.6412 18.1578 3.45693 18.9256L16.209 30.9275C17.0247 31.6953 17.0617 32.9769 16.2916 33.7901C15.5214 34.6034 14.2359 34.6402 13.4201 33.8725L0.668083 21.8705ZM29.3985 21.3274C28.5868 22.0995 27.3011 22.0693 26.5267 21.2602C25.7523 20.451 25.7825 19.1692 26.5942 18.3972L35.971 9.47851L45.3478 0.559862C46.1595 -0.212149 47.4453 -0.182022 48.2197 0.627153C48.9941 1.43633 48.9638 2.71813 48.1522 3.49015L29.3985 21.3274Z" fill="#389E0D"/>
</svg>
