<svg width="149" height="149" viewBox="0 0 149 149" fill="none" xmlns="http://www.w3.org/2000/svg">
<g clip-path="url(#clip0)">
<path d="M4.15088 59.2309C17.6147 84.4947 13.7697 108.819 20.2553 120.996C26.7409 133.172 47.3692 155.009 103.377 125.168C159.384 95.3262 149.277 56.5489 142.137 43.1555C108.728 -19.5528 -19.6933 14.4854 4.15088 59.2309Z" fill="#EFEFEF"/>
<path d="M24.833 130.457H33.1108V134.596H24.833V130.457Z" fill="#A4AFC1"/>
<path d="M48.6328 130.457H56.9106V134.596H48.6328V130.457Z" fill="#A4AFC1"/>
<path d="M38.2842 140.804H42.4231V149.081H38.2842V140.804Z" fill="#A4AFC1"/>
<path d="M32.0765 34.402C28.6536 34.402 25.8682 31.6165 25.8682 28.1937C25.8682 24.7708 28.6536 21.9854 32.0765 21.9854C35.4994 21.9854 38.2848 24.7708 38.2848 28.1937C38.2848 31.6165 35.4994 34.402 32.0765 34.402ZM32.0765 26.1242C30.9383 26.1242 30.0071 27.0514 30.0071 28.1937C30.0071 29.336 30.9383 30.2631 32.0765 30.2631C33.2147 30.2631 34.1459 29.336 34.1459 28.1937C34.1459 27.0514 33.2147 26.1242 32.0765 26.1242Z" fill="#A4AFC1"/>
<path d="M114.18 50.2047L113.828 49.8777C110.645 52.8619 107.611 54.9893 107.611 54.9893C107.611 54.9893 94.1597 45.6023 94.1597 38.4917C94.1597 36.5754 95.0537 34.866 96.4568 33.6657L95.9601 33.2022C89.5614 29.8414 82.2314 27.9375 74.5 27.9375C48.7892 27.9375 27.9375 48.7892 27.9375 74.5C27.9375 82.6371 30.0442 90.2899 33.7278 96.9328L34.895 98.1579C34.9157 98.1579 34.9364 98.1537 34.9571 98.1537C37.8336 98.1537 40.3128 99.7721 41.3889 102.09C42.465 99.7721 44.9442 98.1537 47.8207 98.1537C51.6906 98.1537 54.8403 101.097 54.8403 104.718C54.8403 107.653 52.5432 110.968 49.8529 113.857L50.1675 114.184C57.2533 118.558 65.5931 121.067 74.5 121.067C100.211 121.067 121.062 100.215 121.062 74.5041C121.062 65.5931 118.55 57.2533 114.18 50.2047Z" fill="#F3F3F1"/>
<path d="M114.043 31.9277C111.167 31.9277 108.688 33.546 107.612 35.8638C106.535 33.546 104.056 31.9277 101.18 31.9277C97.3098 31.9277 94.1602 34.8705 94.1602 38.492C94.1602 45.6026 107.612 54.9896 107.612 54.9896C107.612 54.9896 121.063 45.6026 121.063 38.492C121.063 34.8705 117.917 31.9277 114.043 31.9277Z" fill="#91D5FF"/>
<path d="M47.8207 98.1494C44.9442 98.1494 42.465 99.7677 41.3889 102.085C40.3128 99.7677 37.8336 98.1494 34.9571 98.1494C31.0872 98.1494 27.9375 101.092 27.9375 104.714C27.9375 111.824 41.3889 121.211 41.3889 121.211C41.3889 121.211 54.8403 111.824 54.8403 104.714C54.8403 101.092 51.6947 98.1494 47.8207 98.1494Z" fill="#91D5FF"/>
<path d="M116.647 54.7906C115.902 53.2136 115.091 51.6781 114.18 50.2088L113.828 49.8818C113.294 50.3826 112.773 50.8462 112.264 51.2891C114.288 53.0522 116.018 54.3353 116.647 54.7906Z" fill="#D5DBE1"/>
<path d="M59.4806 114.179L59.166 113.852C61.8563 110.963 64.1534 107.648 64.1534 104.714C64.1534 101.092 61.0078 98.1494 57.1338 98.1494C55.3417 98.1494 53.7482 98.8282 52.5107 99.8629C53.9303 101.063 54.8409 102.785 54.8409 104.714C54.8409 107.648 52.5438 110.963 49.8535 113.852L50.1681 114.179C57.2538 118.554 65.5937 121.062 74.5006 121.062C76.1189 121.062 77.7124 120.98 79.2893 120.818C72.0876 120.119 65.3495 117.801 59.4806 114.179Z" fill="#D5DBE1"/>
<path d="M44.2696 98.1496C44.2489 98.1496 44.2282 98.1537 44.2075 98.1537L43.0403 96.9286C39.3567 90.2899 37.25 82.637 37.25 74.5C37.25 50.4572 55.4859 30.6733 78.8748 28.2065C77.4262 28.0699 75.9776 27.9375 74.5 27.9375C48.7892 27.9375 27.9375 48.7892 27.9375 74.5C27.9375 82.637 30.0442 90.2899 33.7278 96.9328L34.895 98.1579C34.9157 98.1579 34.9364 98.1537 34.9571 98.1537C37.8336 98.1537 40.3128 99.772 41.3889 102.09C42.2332 100.269 43.955 98.9153 46.0451 98.4021C45.474 98.2572 44.8862 98.1496 44.2696 98.1496Z" fill="#D5DBE1"/>
<path d="M103.473 38.492C103.473 36.5633 104.383 34.8457 105.803 33.6412C104.561 32.6065 102.972 31.9277 101.18 31.9277C97.3098 31.9277 94.1602 34.8705 94.1602 38.492C94.1602 45.6026 107.612 54.9896 107.612 54.9896C107.612 54.9896 109.722 53.5079 112.268 51.2936C108.381 47.9038 103.473 42.7882 103.473 38.492Z" fill="#1890FF"/>
<path d="M116.924 35.8677C117.329 34.9944 117.983 34.2701 118.733 33.6451C117.487 32.5939 115.852 31.9316 114.043 31.9316C113.426 31.9316 112.839 32.0393 112.268 32.18C114.358 32.6891 116.079 34.0466 116.924 35.8677Z" fill="#1890FF"/>
<path d="M50.7012 102.089C51.1068 101.216 51.7607 100.492 52.5099 99.8668C51.2641 98.8155 49.6292 98.1533 47.8205 98.1533C47.2038 98.1533 46.6161 98.2609 46.0449 98.4017C48.1351 98.9107 49.8568 100.268 50.7012 102.089Z" fill="#1890FF"/>
<path d="M37.25 104.714C37.25 102.785 38.1606 101.067 39.5802 99.8629C38.3385 98.8282 36.7492 98.1494 34.9571 98.1494C31.0872 98.1494 27.9375 101.092 27.9375 104.714C27.9375 111.824 41.3889 121.211 41.3889 121.211C41.3889 121.211 43.4997 119.73 46.0451 117.515C42.1587 114.126 37.25 109.01 37.25 104.714Z" fill="#1890FF"/>
<path d="M31.0082 98.4359C26.9728 91.1514 24.833 82.8736 24.833 74.5006C24.833 47.1136 47.1126 24.834 74.4997 24.834C82.4836 24.834 90.4013 26.7793 97.4002 30.4546L94.5154 35.951C88.3981 32.7393 81.482 31.0423 74.4997 31.0423C50.5355 31.0423 31.0413 50.5365 31.0413 74.5006C31.0413 81.8223 32.908 89.0571 36.4426 95.4269L31.0082 98.4359Z" fill="#595959"/>
<path d="M74.5001 124.167C65.2994 124.167 56.3221 121.626 48.541 116.821L51.7983 111.539C58.6027 115.736 66.4541 117.959 74.5001 117.959C98.4643 117.959 117.958 98.4646 117.958 74.5005C117.958 66.442 115.74 58.6071 111.539 51.8442L116.812 48.5703C121.626 56.3142 124.167 65.2831 124.167 74.5005C124.167 101.887 101.887 124.167 74.5001 124.167Z" fill="#595959"/>
<path d="M66.2218 68.2925H60.0135C60.0135 66.012 58.1592 64.1536 55.8746 64.1536C53.5899 64.1536 51.7357 66.012 51.7357 68.2925H45.5273C45.5273 62.5891 50.167 57.9453 55.8746 57.9453C61.5821 57.9453 66.2218 62.5891 66.2218 68.2925Z" fill="#595959"/>
<path d="M103.472 68.2925H97.2635C97.2635 66.012 95.4092 64.1536 93.1246 64.1536C90.8399 64.1536 88.9857 66.012 88.9857 68.2925H82.7773C82.7773 62.5891 87.417 57.9453 93.1246 57.9453C98.8321 57.9453 103.472 62.5891 103.472 68.2925Z" fill="#595959"/>
<path d="M74.499 99.3343C65.4596 99.3343 56.9666 95.8162 50.5762 89.4216L54.9675 85.0303C60.1825 90.2536 67.1193 93.1259 74.499 93.1259C81.8786 93.1259 88.8154 90.2536 94.0345 85.0344L98.4259 89.4258C92.0313 95.8162 83.5383 99.3343 74.499 99.3343Z" fill="#595959"/>
<path d="M107.612 58.0942C106.991 58.0942 106.371 57.908 105.832 57.5355C103.37 55.8095 91.0566 46.7992 91.0566 38.4924C91.0566 33.1615 95.597 28.8281 101.176 28.8281C103.573 28.8281 105.832 29.6352 107.612 31.0259C109.392 29.6352 111.652 28.8281 114.048 28.8281C119.627 28.824 124.168 33.1615 124.168 38.4924C124.168 46.7992 111.855 55.8137 109.392 57.5355C108.854 57.908 108.233 58.0942 107.612 58.0942ZM101.176 35.0323C99.0199 35.0323 97.265 36.5844 97.265 38.4883C97.265 41.7994 102.923 47.4987 107.612 51.1326C112.384 47.449 117.959 41.8367 117.959 38.4883C117.959 36.5844 116.205 35.0323 114.048 35.0323C112.451 35.0323 111.031 35.8725 110.431 37.1721C109.413 39.3657 105.816 39.3657 104.798 37.1721C104.193 35.8725 102.774 35.0323 101.176 35.0323Z" fill="#595959"/>
<path d="M41.3886 124.316C40.7677 124.316 40.1469 124.13 39.6088 123.757C37.1462 122.031 24.833 113.021 24.833 104.714C24.833 99.3832 29.3734 95.0498 34.9526 95.0498C37.349 95.0498 39.6088 95.8569 41.3886 97.2476C43.1683 95.8569 45.4281 95.0498 47.8245 95.0498C53.4079 95.0498 57.9441 99.3874 57.9441 104.714C57.9441 113.021 45.6309 122.035 43.1683 123.757C42.6302 124.13 42.0094 124.316 41.3886 124.316ZM34.9526 101.254C32.7962 101.254 31.0413 102.806 31.0413 104.71C31.0413 108.021 36.6992 113.72 41.3886 117.354C46.1607 113.671 51.7358 108.058 51.7358 104.71C51.7358 102.806 49.9809 101.254 47.8245 101.254C46.2269 101.254 44.8073 102.094 44.2071 103.394C43.189 105.587 39.5923 105.587 38.5741 103.394C37.9698 102.094 36.5502 101.254 34.9526 101.254Z" fill="#595959"/>
</g>
<defs>
<clipPath id="clip0">
<rect width="149" height="149" fill="white"/>
</clipPath>
</defs>
</svg>
