<svg width="149" height="149" viewBox="0 0 149 149" fill="none" xmlns="http://www.w3.org/2000/svg">
<g clip-path="url(#clip0)">
<path d="M144.564 85.2238C129.279 61.0196 131.324 36.476 123.956 24.8126C116.589 13.1492 94.4129 -7.1148 40.7523 26.7703C-12.9084 60.6554 0.0255907 98.58 8.12953 111.411C46.0666 171.487 171.632 128.094 144.564 85.2238Z" fill="#EFEFEF"/>
<path d="M82.2607 14.2422H90.5385V18.3811H82.2607V14.2422Z" fill="#A4AFC1"/>
<path d="M58.4619 14.2422H66.7397V18.3811H58.4619V14.2422Z" fill="#A4AFC1"/>
<path d="M72.9482 -0.244141H77.0871V8.03364H72.9482V-0.244141Z" fill="#A4AFC1"/>
<path d="M121.063 127.271C117.64 127.271 114.854 124.486 114.854 121.063C114.854 117.64 117.64 114.854 121.063 114.854C124.486 114.854 127.271 117.64 127.271 121.063C127.271 124.486 124.486 127.271 121.063 127.271ZM121.063 118.993C119.92 118.993 118.993 119.92 118.993 121.063C118.993 122.205 119.92 123.132 121.063 123.132C122.205 123.132 123.132 122.205 123.132 121.063C123.132 119.92 122.205 118.993 121.063 118.993Z" fill="#A4AFC1"/>
<path d="M74.5 121.062C100.216 121.062 121.062 100.216 121.062 74.5C121.062 48.7842 100.216 27.9375 74.5 27.9375C48.7842 27.9375 27.9375 48.7842 27.9375 74.5C27.9375 100.216 48.7842 121.062 74.5 121.062Z" fill="#F3F3F1"/>
<path d="M37.25 74.5C37.25 50.3579 55.6267 30.5078 79.1562 28.1734C77.6249 28.0203 76.0728 27.9375 74.5 27.9375C48.7851 27.9375 27.9375 48.7851 27.9375 74.5C27.9375 100.215 48.7851 121.062 74.5 121.062C76.0728 121.062 77.6249 120.98 79.1562 120.827C55.6267 118.492 37.25 98.6421 37.25 74.5Z" fill="#D5DBE1"/>
<path d="M74.4997 124.167C47.1126 124.167 24.833 101.888 24.833 74.5006C24.833 47.1136 47.1126 24.834 74.4997 24.834C101.887 24.834 124.166 47.1136 124.166 74.5006C124.166 101.888 101.887 124.167 74.4997 124.167ZM74.4997 31.0423C50.5355 31.0423 31.0413 50.5365 31.0413 74.5006C31.0413 98.4648 50.5355 117.959 74.4997 117.959C98.4639 117.959 117.958 98.4648 117.958 74.5006C117.958 50.5365 98.4639 31.0423 74.4997 31.0423Z" fill="#595959"/>
<path d="M54.5497 69.7986L50.9902 64.7119L57.7077 60.0102L50.9902 55.3084L54.5497 50.2217L64.8969 57.4647C65.7247 58.0442 66.2213 58.9961 66.2213 60.006C66.2213 61.0159 65.7247 61.9678 64.8969 62.5473L54.5497 69.7986Z" fill="#595959"/>
<path d="M94.449 69.7991L84.1018 62.5561C83.274 61.9766 82.7773 61.0247 82.7773 60.0148C82.7773 59.0049 83.274 58.053 84.1018 57.4735L94.449 50.2305L98.0085 55.3172L91.2952 60.0148L98.0126 64.7166L94.449 69.7991Z" fill="#595959"/>
<path d="M74.4993 99.3336C74.0233 99.3336 73.5474 99.226 73.1128 99.0066L62.1489 93.5226L52.1907 98.9528L49.2148 93.506L60.5968 87.2977C61.4908 86.8093 62.5628 86.7927 63.4733 87.2439L74.4993 92.761L85.5295 87.2439C86.44 86.7927 87.512 86.8093 88.406 87.2977L99.7879 93.506L96.8121 98.9528L86.8539 93.5226L75.89 99.0066C75.4513 99.226 74.9753 99.3336 74.4993 99.3336Z" fill="#595959"/>
</g>
<defs>
<clipPath id="clip0">
<rect width="149" height="149" fill="white"/>
</clipPath>
</defs>
</svg>
