<svg width="149" height="149" viewBox="0 0 149 149" fill="none" xmlns="http://www.w3.org/2000/svg">
<path d="M34.6708 17.2466C63.2995 17.2466 82.9592 2.41699 96.7541 2.41699C110.549 2.41699 139.521 10.3471 139.521 73.8087C139.521 137.27 100.545 146.583 85.3722 146.583C14.3199 146.587 -16.0306 17.2466 34.6708 17.2466Z" fill="#EFEFEF"/>
<path d="M34.0215 23.792L39.8748 17.9387L42.8014 20.8654L36.9481 26.7186L34.0215 23.792Z" fill="#A4AFC1"/>
<path d="M17.1963 40.6191L23.0496 34.7659L25.9762 37.6925L20.1229 43.5458L17.1963 40.6191Z" fill="#A4AFC1"/>
<path d="M17.1973 20.1328L20.1239 17.2062L25.9772 23.0594L23.0505 25.9861L17.1973 20.1328Z" fill="#A4AFC1"/>
<path d="M120.028 126.241C116.605 126.241 113.819 123.455 113.819 120.033C113.819 116.61 116.605 113.824 120.028 113.824C123.451 113.824 126.236 116.61 126.236 120.033C126.236 123.455 123.451 126.241 120.028 126.241ZM120.028 117.963C118.889 117.963 117.958 118.89 117.958 120.033C117.958 121.175 118.889 122.102 120.028 122.102C121.166 122.102 122.097 121.175 122.097 120.033C122.097 118.89 121.166 117.963 120.028 117.963Z" fill="#A4AFC1"/>
<path d="M74.5 121.062C100.216 121.062 121.062 100.216 121.062 74.5C121.062 48.7842 100.216 27.9375 74.5 27.9375C48.7842 27.9375 27.9375 48.7842 27.9375 74.5C27.9375 100.216 48.7842 121.062 74.5 121.062Z" fill="#F3F3F1"/>
<path d="M61.6029 58.424C62.5383 59.3594 63.1177 60.6549 63.1177 62.0828C63.1177 64.9386 60.8 67.2564 57.9441 67.2564C55.0883 67.2564 52.7705 64.9386 52.7705 62.0828C52.7705 59.227 55.0883 56.9092 57.9441 56.9092C59.372 56.9092 60.6675 57.4886 61.6029 58.424Z" fill="#91D5FF"/>
<path d="M87.3967 58.424C86.4613 59.3594 85.8818 60.6549 85.8818 62.0828C85.8818 64.9386 88.1996 67.2564 91.0555 67.2564C93.9113 67.2564 96.2291 64.9386 96.2291 62.0828C96.2291 59.227 93.9113 56.9092 91.0555 56.9092C89.6275 56.9092 88.3321 57.4886 87.3967 58.424Z" fill="#91D5FF"/>
<path d="M102.438 100.368C98.4021 88.8535 87.4009 80.584 74.5 80.584C61.5991 80.584 50.5979 88.8535 46.5625 100.368H102.438Z" fill="#91D5FF"/>
<path d="M37.25 74.5C37.25 50.3579 55.6267 30.5078 79.1562 28.1734C77.6249 28.0203 76.0728 27.9375 74.5 27.9375C48.7851 27.9375 27.9375 48.7851 27.9375 74.5C27.9375 100.215 48.7851 121.062 74.5 121.062C76.0728 121.062 77.6249 120.98 79.1562 120.827C55.6267 118.492 37.25 98.6421 37.25 74.5Z" fill="#D5DBE1"/>
<path d="M79.1562 80.9526C77.6373 80.7125 76.0852 80.5801 74.5 80.5801C61.5991 80.5801 50.5979 88.8496 46.5625 100.364H55.875C59.4137 90.2692 68.3165 82.6702 79.1562 80.9526Z" fill="#1890FF"/>
<path d="M74.4997 124.167C47.1126 124.167 24.833 101.888 24.833 74.5006C24.833 47.1136 47.1126 24.834 74.4997 24.834C101.887 24.834 124.166 47.1136 124.166 74.5006C124.166 101.888 101.887 124.167 74.4997 124.167ZM74.4997 31.0423C50.5355 31.0423 31.0413 50.5365 31.0413 74.5006C31.0413 98.4648 50.5355 117.959 74.4997 117.959C98.4639 117.959 117.958 98.4648 117.958 74.5006C117.958 50.5365 98.4639 31.0423 74.4997 31.0423Z" fill="#595959"/>
<path d="M57.9438 70.3612C53.3786 70.3612 49.666 66.6486 49.666 62.0834C49.666 57.5182 53.3786 53.8057 57.9438 53.8057C60.1498 53.8057 62.2276 54.6666 63.7921 56.2269C65.3607 57.7914 66.2216 59.8691 66.2216 62.0834C66.2216 66.6486 62.509 70.3612 57.9438 70.3612ZM57.9438 60.014C56.8056 60.014 55.8744 60.9411 55.8744 62.0834C55.8744 63.2258 56.8056 64.1529 57.9438 64.1529C59.082 64.1529 60.0132 63.2258 60.0132 62.0834C60.0132 61.5288 59.798 61.0115 59.409 60.6224C59.0158 60.2292 58.4943 60.014 57.9438 60.014Z" fill="#595959"/>
<path d="M50.7705 51.9883L55.1605 47.5983L63.7823 56.2202L59.3924 60.6102L50.7705 51.9883Z" fill="#595959"/>
<path d="M91.0551 70.3612C86.4899 70.3612 82.7773 66.6486 82.7773 62.0834C82.7773 59.8691 83.6382 57.7914 85.2069 56.2269C86.7714 54.6666 88.8491 53.8057 91.0551 53.8057C95.6203 53.8057 99.3329 57.5182 99.3329 62.0834C99.3329 66.6486 95.6203 70.3612 91.0551 70.3612ZM91.0551 60.014C90.5047 60.014 89.9831 60.2292 89.59 60.6224C89.2009 61.0115 88.9857 61.5288 88.9857 62.0834C88.9857 63.2258 89.9169 64.1529 91.0551 64.1529C92.1933 64.1529 93.1246 63.2258 93.1246 62.0834C93.1246 60.9411 92.1933 60.014 91.0551 60.014Z" fill="#595959"/>
<path d="M85.1904 56.2344L93.8123 47.6125L98.2023 52.0025L89.5804 60.6243L85.1904 56.2344Z" fill="#595959"/>
<path d="M102.437 103.473H46.5625C45.5567 103.473 44.6131 102.984 44.0336 102.165C43.4501 101.345 43.3011 100.294 43.6322 99.3421C48.2181 86.2632 60.6223 77.4805 74.5 77.4805C88.3777 77.4805 100.782 86.2673 105.368 99.3421C105.699 100.29 105.55 101.341 104.966 102.165C104.387 102.984 103.443 103.473 102.437 103.473ZM51.3512 97.2644H97.6488C93.0339 88.9949 84.2098 83.6888 74.5 83.6888C64.7902 83.6888 55.9661 88.9949 51.3512 97.2644Z" fill="#595959"/>
</svg>
