<svg width="149" height="149" viewBox="0 0 149 149" fill="none" xmlns="http://www.w3.org/2000/svg">
<path d="M33.5826 23.0287C26.1119 50.6641 6.66329 65.771 3.06246 79.0899C-0.538378 92.4089 -0.443186 122.445 60.8207 139.009C122.084 155.572 141.248 120.379 145.204 105.728C163.751 37.1382 46.8147 -25.9178 33.5826 23.0287Z" fill="#EFEFEF"/>
<path d="M37.0654 25.4932L42.9187 19.6399L45.8453 22.5665L39.9921 28.4198L37.0654 25.4932Z" fill="#A4AFC1"/>
<path d="M20.2373 42.3184L26.0906 36.4651L29.0172 39.3917L23.1639 45.245L20.2373 42.3184Z" fill="#A4AFC1"/>
<path d="M20.2383 21.832L23.1649 18.9054L29.0182 24.7587L26.0916 27.6853L20.2383 21.832Z" fill="#A4AFC1"/>
<path d="M120.028 124.903C116.605 124.903 113.819 122.118 113.819 118.695C113.819 115.272 116.605 112.486 120.028 112.486C123.451 112.486 126.236 115.272 126.236 118.695C126.236 122.118 123.451 124.903 120.028 124.903ZM120.028 116.625C118.885 116.625 117.958 117.552 117.958 118.695C117.958 119.837 118.885 120.764 120.028 120.764C121.17 120.764 122.097 119.837 122.097 118.695C122.097 117.552 121.17 116.625 120.028 116.625Z" fill="#A4AFC1"/>
<path d="M74.5 121.062C100.216 121.062 121.062 100.216 121.062 74.5C121.062 48.7842 100.216 27.9375 74.5 27.9375C48.7842 27.9375 27.9375 48.7842 27.9375 74.5C27.9375 100.216 48.7842 121.062 74.5 121.062Z" fill="#F3F3F1"/>
<path d="M53.8054 67.5259C56.6628 67.5259 58.9791 65.2096 58.9791 62.3523C58.9791 59.495 56.6628 57.1787 53.8054 57.1787C50.9481 57.1787 48.6318 59.495 48.6318 62.3523C48.6318 65.2096 50.9481 67.5259 53.8054 67.5259Z" fill="#91D5FF"/>
<path d="M95.1941 67.5259C98.0514 67.5259 100.368 65.2096 100.368 62.3523C100.368 59.495 98.0514 57.1787 95.1941 57.1787C92.3368 57.1787 90.0205 59.495 90.0205 62.3523C90.0205 65.2096 92.3368 67.5259 95.1941 67.5259Z" fill="#91D5FF"/>
<path d="M37.25 74.5C37.25 50.3579 55.6267 30.5078 79.1562 28.1734C77.6249 28.0203 76.0728 27.9375 74.5 27.9375C48.7851 27.9375 27.9375 48.7851 27.9375 74.5C27.9375 100.215 48.7851 121.062 74.5 121.062C76.0728 121.062 77.6249 120.98 79.1562 120.827C55.6267 118.492 37.25 98.6421 37.25 74.5Z" fill="#D5DBE1"/>
<path d="M74.4997 124.167C47.1126 124.167 24.833 101.888 24.833 74.5006C24.833 47.1136 47.1126 24.834 74.4997 24.834C101.887 24.834 124.166 47.1136 124.166 74.5006C124.166 101.888 101.887 124.167 74.4997 124.167ZM74.4997 31.0423C50.5355 31.0423 31.0413 50.5365 31.0413 74.5006C31.0413 98.4648 50.5355 117.959 74.4997 117.959C98.4639 117.959 117.958 98.4648 117.958 74.5006C117.958 50.5365 98.4639 31.0423 74.4997 31.0423Z" fill="#595959"/>
<path d="M53.8051 70.6308C49.2399 70.6308 45.5273 66.9182 45.5273 62.353C45.5273 57.7878 49.2399 54.0752 53.8051 54.0752C58.3703 54.0752 62.0829 57.7878 62.0829 62.353C62.0829 66.9182 58.3703 70.6308 53.8051 70.6308ZM53.8051 60.2835C52.6628 60.2835 51.7357 61.2106 51.7357 62.353C51.7357 63.4953 52.6628 64.4224 53.8051 64.4224C54.9475 64.4224 55.8746 63.4953 55.8746 62.353C55.8746 61.2106 54.9475 60.2835 53.8051 60.2835Z" fill="#595959"/>
<path d="M95.1938 70.6308C90.6286 70.6308 86.916 66.9182 86.916 62.353C86.916 57.7878 90.6286 54.0752 95.1938 54.0752C99.759 54.0752 103.472 57.7878 103.472 62.353C103.472 66.9182 99.759 70.6308 95.1938 70.6308ZM95.1938 60.2835C94.0515 60.2835 93.1244 61.2106 93.1244 62.353C93.1244 63.4953 94.0515 64.4224 95.1938 64.4224C96.3361 64.4224 97.2632 63.4953 97.2632 62.353C97.2632 61.2106 96.3361 60.2835 95.1938 60.2835Z" fill="#595959"/>
<path d="M61.0479 93.125H87.9506V99.3333H61.0479V93.125Z" fill="#595959"/>
</svg>
