<svg width="149" height="149" viewBox="0 0 149 149" fill="none" xmlns="http://www.w3.org/2000/svg">
<path d="M113.476 16.1994C84.8556 16.7333 64.9185 2.27203 51.1278 2.53278C37.337 2.79353 8.51377 11.2617 9.70164 74.715C10.8895 138.168 50.031 146.748 65.2041 146.467C136.24 145.138 164.169 15.2516 113.476 16.1994Z" fill="#F5F5F5"/>
<path d="M121.063 127.271C117.64 127.271 114.854 124.486 114.854 121.063C114.854 117.64 117.64 114.854 121.063 114.854C124.486 114.854 127.271 117.64 127.271 121.063C127.271 124.486 124.486 127.271 121.063 127.271ZM121.063 118.993C119.92 118.993 118.993 119.92 118.993 121.063C118.993 122.205 119.92 123.132 121.063 123.132C122.205 123.132 123.132 122.205 123.132 121.063C123.132 119.92 122.205 118.993 121.063 118.993Z" fill="#D9D9D9"/>
<path d="M23.0205 8.79492H27.1594V17.0727H23.0205V8.79492Z" fill="#D9D9D9"/>
<path d="M23.0205 32.5938H27.1594V40.8715H23.0205V32.5938Z" fill="#D9D9D9"/>
<path d="M8.53418 22.2461H16.812V26.385H8.53418V22.2461Z" fill="#D9D9D9"/>
<path d="M32.333 22.2461H40.6108V26.385H32.333V22.2461Z" fill="#D9D9D9"/>
<path d="M74.5 121.062C100.216 121.062 121.062 100.216 121.062 74.5C121.062 48.7842 100.216 27.9375 74.5 27.9375C48.7842 27.9375 27.9375 48.7842 27.9375 74.5C27.9375 100.216 48.7842 121.062 74.5 121.062Z" fill="white"/>
<path d="M102.438 85.8818C98.4021 97.3962 87.4009 105.666 74.5 105.666C61.5991 105.666 50.5979 97.3962 46.5625 85.8818H102.438Z" fill="#91D5FF"/>
<path d="M37.25 74.5C37.25 50.3579 55.6267 30.5078 79.1562 28.1734C77.6249 28.0203 76.0728 27.9375 74.5 27.9375C48.7851 27.9375 27.9375 48.7851 27.9375 74.5C27.9375 100.215 48.7851 121.062 74.5 121.062C76.0728 121.062 77.6249 120.98 79.1562 120.827C55.6267 118.492 37.25 98.6421 37.25 74.5Z" fill="#F5F5F5"/>
<path d="M55.875 85.8818H46.5625C50.5979 97.3962 61.5991 105.666 74.5 105.666C76.0852 105.666 77.6373 105.533 79.1562 105.293C68.3165 103.58 59.4137 95.9807 55.875 85.8818Z" fill="#1890FF"/>
<path d="M55.8746 70.3619C50.1712 70.3619 45.5273 65.718 45.5273 60.0146H51.7357C51.7357 62.2952 53.594 64.1535 55.8746 64.1535C58.1551 64.1535 60.0135 62.2952 60.0135 60.0146H66.2218C66.2218 65.718 61.578 70.3619 55.8746 70.3619Z" fill="#595959"/>
<path d="M93.1246 70.3619C87.4212 70.3619 82.7773 65.718 82.7773 60.0146H88.9857C88.9857 62.2952 90.844 64.1535 93.1246 64.1535C95.4051 64.1535 97.2635 62.2952 97.2635 60.0146H103.472C103.472 65.718 98.828 70.3619 93.1246 70.3619Z" fill="#595959"/>
<path d="M74.4997 124.167C47.1126 124.167 24.833 101.888 24.833 74.5006C24.833 47.1136 47.1126 24.834 74.4997 24.834C101.887 24.834 124.166 47.1136 124.166 74.5006C124.166 101.888 101.887 124.167 74.4997 124.167ZM74.4997 31.0423C50.5355 31.0423 31.0413 50.5365 31.0413 74.5006C31.0413 98.4648 50.5355 117.959 74.4997 117.959C98.4639 117.959 117.958 98.4648 117.958 74.5006C117.958 50.5365 98.4639 31.0423 74.4997 31.0423Z" fill="#595959"/>
<path d="M74.4992 108.771C60.6174 108.771 48.2131 99.9837 43.6314 86.9089C43.3003 85.9611 43.4493 84.9098 44.0287 84.0862C44.6123 83.2667 45.5559 82.7783 46.5617 82.7783H102.437C103.442 82.7783 104.386 83.2667 104.97 84.0862C105.553 84.9098 105.698 85.9611 105.367 86.9089C100.785 99.9878 88.381 108.771 74.4992 108.771ZM51.3504 88.9867C55.9653 97.2562 64.7852 102.562 74.4992 102.562C84.2132 102.562 93.0331 97.2562 97.648 88.9867H51.3504Z" fill="#595959"/>
</svg>
