<svg width="18" height="18" viewBox="0 0 18 18" fill="none" xmlns="http://www.w3.org/2000/svg">
<path d="M14.134 10.8663C14.3503 10.8672 14.5663 10.8856 14.7796 10.9216V2.02138C14.7787 1.49152 14.5678 0.983612 14.1931 0.60894C13.8184 0.234267 13.3105 0.0233737 12.7807 0.0224609H1.99892C1.46905 0.0233737 0.961151 0.234267 0.586479 0.60894C0.211806 0.983612 0.000912778 1.49152 0 2.02138V13.6593C0.000912778 14.1892 0.211806 14.6971 0.586479 15.0718C0.961151 15.4464 1.46905 15.6573 1.99892 15.6582H10.326C10.1912 15.0849 10.1879 14.4884 10.3166 13.9137C10.4453 13.3389 10.7025 12.8007 11.0689 12.3396C11.4354 11.8785 11.9015 11.5064 12.4324 11.2512C12.9632 10.996 13.545 10.8645 14.134 10.8663ZM2.90689 2.58067H11.8692C12.0066 2.58067 12.1383 2.63522 12.2354 2.73234C12.3325 2.82946 12.3871 2.96118 12.3871 3.09852C12.3871 3.23586 12.3325 3.36758 12.2354 3.4647C12.1383 3.56182 12.0066 3.61638 11.8692 3.61638H2.90689C2.76955 3.61638 2.63783 3.56182 2.54071 3.4647C2.4436 3.36758 2.38904 3.23586 2.38904 3.09852C2.38904 2.96118 2.4436 2.82946 2.54071 2.73234C2.63783 2.63522 2.76955 2.58067 2.90689 2.58067ZM2.90689 5.74303H11.8692C12.0066 5.74303 12.1383 5.79759 12.2354 5.89471C12.3325 5.99183 12.3871 6.12355 12.3871 6.26089C12.3871 6.39823 12.3325 6.52995 12.2354 6.62707C12.1383 6.72419 12.0066 6.77874 11.8692 6.77874H2.90689C2.76955 6.77874 2.63783 6.72419 2.54071 6.62707C2.4436 6.52995 2.38904 6.39823 2.38904 6.26089C2.38904 6.12355 2.4436 5.99183 2.54071 5.89471C2.63783 5.79759 2.76955 5.74303 2.90689 5.74303ZM2.90689 8.90195H11.8692C12.0066 8.90195 12.1383 8.95651 12.2354 9.05363C12.3325 9.15074 12.3871 9.28246 12.3871 9.41981C12.3871 9.55715 12.3325 9.68887 12.2354 9.78599C12.1383 9.8831 12.0066 9.93766 11.8692 9.93766H2.90689C2.76955 9.93766 2.63783 9.8831 2.54071 9.78599C2.4436 9.68887 2.38904 9.55715 2.38904 9.41981C2.38904 9.28246 2.4436 9.15074 2.54071 9.05363C2.63783 8.95651 2.76955 8.90195 2.90689 8.90195ZM9.35937 13.1H2.90689C2.76955 13.1 2.63783 13.0455 2.54071 12.9484C2.4436 12.8512 2.38904 12.7195 2.38904 12.5822C2.38904 12.4448 2.4436 12.3131 2.54071 12.216C2.63783 12.1189 2.76955 12.0643 2.90689 12.0643H9.35937C9.49671 12.0643 9.62843 12.1189 9.72555 12.216C9.82266 12.3131 9.87722 12.4448 9.87722 12.5822C9.87722 12.7195 9.82266 12.8512 9.72555 12.9484C9.62843 13.0455 9.49671 13.1 9.35937 13.1ZM14.134 11.9021C13.5649 11.9024 13.0086 12.0715 12.5356 12.388C12.0626 12.7044 11.694 13.1541 11.4766 13.68C11.2591 14.2059 11.2024 14.7846 11.3138 15.3427C11.4252 15.9008 11.6995 16.4134 12.1022 16.8156C12.5049 17.2178 13.0178 17.4915 13.576 17.6022C14.1343 17.7129 14.7128 17.6556 15.2385 17.4375C15.7642 17.2193 16.2134 16.8503 16.5293 16.3769C16.8452 15.9035 17.0136 15.347 17.0133 14.7779C17.0126 14.0148 16.709 13.2831 16.169 12.7439C15.6291 12.2046 14.8971 11.9018 14.134 11.9021ZM15.508 15.2957H14.134C13.9966 15.2957 13.8649 15.2412 13.7678 15.1441C13.6707 15.0469 13.6161 14.9152 13.6161 14.7779V13.2001C13.6161 13.0628 13.6707 12.9311 13.7678 12.834C13.8649 12.7369 13.9966 12.6823 14.134 12.6823C14.2713 12.6823 14.4031 12.7369 14.5002 12.834C14.5973 12.9311 14.6518 13.0628 14.6518 13.2001V14.26H15.508C15.6454 14.26 15.7771 14.3146 15.8742 14.4117C15.9713 14.5088 16.0259 14.6405 16.0259 14.7779C16.0259 14.9152 15.9713 15.0469 15.8742 15.1441C15.7771 15.2412 15.6454 15.2957 15.508 15.2957Z" fill="white"/>
</svg>
