<svg width="201" height="50" viewBox="0 0 201 50" fill="none" xmlns="http://www.w3.org/2000/svg">
<path d="M6.59179 38.38H6.66407L8.91915 46.0577H10.4442L13.2631 35.8748H11.579L9.64916 43.849H9.59134L7.37962 35.8748H5.87623L3.67174 43.849H3.61392L1.68409 35.8748H0L2.81163 46.0577H4.34393L6.59179 38.38Z" fill="#595959"/>
<path d="M14.1235 46.0577H15.6847V41.7672C15.6847 40.5958 16.393 39.8196 17.5495 39.8196C18.6481 39.8196 19.2119 40.4758 19.2119 41.5696V46.0577H20.7803V41.2733C20.7803 39.5937 19.7829 38.507 18.1133 38.507C16.9568 38.507 16.1256 39.008 15.7064 39.876H15.6702V35.8748H14.1235V46.0577Z" fill="#595959"/>
<path d="M25.1751 39.7278C26.2665 39.7278 27.0038 40.5252 27.0399 41.6614H23.2381C23.3176 40.5394 24.0837 39.7278 25.1751 39.7278ZM27.0327 43.8772C26.8231 44.5264 26.1654 44.9639 25.2763 44.9639C24.0259 44.9639 23.2309 44.1101 23.2309 42.8187V42.727H28.6011V42.2047C28.6011 39.9536 27.2857 38.4999 25.1751 38.4999C23.0285 38.4999 21.6552 40.0524 21.6552 42.3812C21.6552 44.724 23.0068 46.1989 25.2402 46.1989C26.9821 46.1989 28.2976 45.2321 28.5144 43.8772H27.0327Z" fill="#595959"/>
<path d="M29.5194 46.0577H31.0806V41.612C31.0806 40.5605 31.7022 39.9042 32.7068 39.9042C33.0104 39.9042 33.2851 39.9395 33.4079 39.9889V38.5705C33.2923 38.5493 33.0971 38.5141 32.8731 38.5141C31.9768 38.5141 31.2974 39.0292 31.0444 39.8972H31.0083V38.634H29.5194V46.0577Z" fill="#595959"/>
<path d="M36.9282 39.7278C38.0196 39.7278 38.7568 40.5252 38.793 41.6614H34.9911C35.0706 40.5394 35.8368 39.7278 36.9282 39.7278ZM38.7857 43.8772C38.5761 44.5264 37.9184 44.9639 37.0294 44.9639C35.779 44.9639 34.9839 44.1101 34.9839 42.8187V42.727H40.3542V42.2047C40.3542 39.9536 39.0387 38.4999 36.9282 38.4999C34.7815 38.4999 33.4082 40.0524 33.4082 42.3812C33.4082 44.724 34.7598 46.1989 36.9932 46.1989C38.7351 46.1989 40.0506 45.2321 40.2674 43.8772H38.7857Z" fill="#595959"/>
<path d="M45.7901 46.0577V35.8748H44.1711V46.0577H45.7901Z" fill="#595959"/>
<path d="M50.0837 46.1848C51.1896 46.1848 52.0569 45.6414 52.505 44.7946H52.5339V46.0577H54.0518V35.8748H52.4834V39.869H52.4544C52.028 39.0504 51.1607 38.5141 50.0693 38.5141C48.1611 38.5141 46.889 40.003 46.889 42.3459C46.889 44.6887 48.1611 46.1848 50.0837 46.1848ZM50.4957 39.7984C51.6955 39.7984 52.4978 40.8075 52.4978 42.3459C52.4978 43.8984 51.6955 44.8934 50.4957 44.8934C49.2597 44.8934 48.4864 43.9125 48.4864 42.3459C48.4864 40.7863 49.2597 39.7984 50.4957 39.7984Z" fill="#595959"/>
<path d="M58.5406 39.7278C59.632 39.7278 60.3692 40.5252 60.4054 41.6614H56.6035C56.683 40.5394 57.4492 39.7278 58.5406 39.7278ZM60.3981 43.8772C60.1885 44.5264 59.5308 44.9639 58.6418 44.9639C57.3913 44.9639 56.5963 44.1101 56.5963 42.8187V42.727H61.9666V42.2047C61.9666 39.9536 60.6511 38.4999 58.5406 38.4999C56.3939 38.4999 55.0206 40.0524 55.0206 42.3812C55.0206 44.724 56.3722 46.1989 58.6056 46.1989C60.3475 46.1989 61.663 45.2321 61.8798 43.8772H60.3981Z" fill="#595959"/>
<path d="M65.5446 44.9781C64.7062 44.9781 64.1569 44.5547 64.1569 43.9054C64.1569 43.2703 64.6845 42.8681 65.6169 42.8046L67.4889 42.6917V43.2774C67.4889 44.2442 66.636 44.9781 65.5446 44.9781ZM65.111 46.1848C66.1084 46.1848 67.0697 45.6626 67.5106 44.8369H67.5468V46.0577H69.0429V40.9416C69.0429 39.4526 67.8648 38.4999 66.0217 38.4999C64.1424 38.4999 62.9715 39.4879 62.8848 40.8287H64.3593C64.4966 40.1653 65.0604 39.7419 65.9639 39.7419C66.9179 39.7419 67.4889 40.2359 67.4889 41.0616V41.6332L65.4073 41.7531C63.6004 41.8519 62.5812 42.6493 62.5812 43.9478C62.5812 45.2815 63.622 46.1848 65.111 46.1848Z" fill="#595959"/>
<path d="M70.1274 40.7369C70.1274 41.7743 70.8213 42.4729 72.1945 42.7975L73.5534 43.1221C74.3484 43.3197 74.6376 43.5808 74.6376 44.0536C74.6376 44.6534 74.0593 45.0345 73.1197 45.0345C72.1656 45.0345 71.6019 44.6393 71.479 43.9266H69.9322C70.0551 45.2886 71.2477 46.1989 73.0474 46.1989C74.9122 46.1989 76.206 45.2674 76.206 43.9125C76.206 42.8187 75.6278 42.2541 74.0955 41.8943L72.8161 41.6049C72.0283 41.4144 71.6525 41.1039 71.6525 40.6452C71.6525 40.0595 72.2162 39.6573 73.0619 39.6573C73.9364 39.6573 74.493 40.0736 74.5653 40.744H76.0325C75.9819 39.4244 74.7966 38.4999 73.1052 38.4999C71.3272 38.4999 70.1274 39.4103 70.1274 40.7369Z" fill="#595959"/>
<path d="M84.2078 46.0577C86.4267 46.0577 87.7639 44.971 87.7639 43.1786C87.7639 41.8237 86.8098 40.8428 85.3932 40.6875V40.6311C86.434 40.4617 87.2507 39.495 87.2507 38.4153C87.2507 36.8769 86.0364 35.8748 84.1861 35.8748H80.0229V46.0577H84.2078ZM81.6419 37.1662H83.7958C84.9667 37.1662 85.6317 37.6884 85.6317 38.634C85.6317 39.6431 84.8583 40.2077 83.4561 40.2077H81.6419V37.1662ZM81.6419 44.7664V41.4144H83.7813C85.3136 41.4144 86.1087 41.9789 86.1087 43.0798C86.1087 44.1806 85.3353 44.7664 83.8753 44.7664H81.6419Z" fill="#595959"/>
<path d="M91.8551 39.7278C92.9465 39.7278 93.6838 40.5252 93.7199 41.6614H89.9181C89.9976 40.5394 90.7637 39.7278 91.8551 39.7278ZM93.7127 43.8772C93.5031 44.5264 92.8453 44.9639 91.9563 44.9639C90.7059 44.9639 89.9108 44.1101 89.9108 42.8187V42.727H95.2811V42.2047C95.2811 39.9536 93.9657 38.4999 91.8551 38.4999C89.7085 38.4999 88.3352 40.0524 88.3352 42.3812C88.3352 44.724 89.6868 46.1989 91.9202 46.1989C93.6621 46.1989 94.9776 45.2321 95.1944 43.8772H93.7127Z" fill="#595959"/>
<path d="M102.726 41.1886C102.589 39.7278 101.396 38.4999 99.4374 38.4999C97.2763 38.4999 95.8596 39.9889 95.8596 42.3459C95.8596 44.7452 97.2763 46.1989 99.4519 46.1989C101.281 46.1989 102.574 45.1263 102.741 43.5455H101.237C101.056 44.4065 100.428 44.9216 99.4663 44.9216C98.2521 44.9216 97.4498 43.976 97.4498 42.3459C97.4498 40.7511 98.2448 39.7702 99.4519 39.7702C100.471 39.7702 101.078 40.3982 101.237 41.1886H102.726Z" fill="#595959"/>
<path d="M106.817 46.1989C108.993 46.1989 110.424 44.7381 110.424 42.3459C110.424 39.9607 108.986 38.4999 106.817 38.4999C104.649 38.4999 103.211 39.9607 103.211 42.3459C103.211 44.7381 104.642 46.1989 106.817 46.1989ZM106.817 44.9428C105.596 44.9428 104.801 43.9972 104.801 42.3459C104.801 40.7017 105.596 39.7561 106.817 39.7561C108.039 39.7561 108.834 40.7017 108.834 42.3459C108.834 43.9972 108.046 44.9428 106.817 44.9428Z" fill="#595959"/>
<path d="M111.335 46.0577H112.896V41.4708C112.896 40.5182 113.554 39.8125 114.479 39.8125C115.361 39.8125 115.917 40.3559 115.917 41.2097V46.0577H117.45V41.4214C117.45 40.4829 118.093 39.8125 119.018 39.8125C119.943 39.8125 120.471 40.3629 120.471 41.3227V46.0577H122.039V40.9557C122.039 39.4808 121.056 38.507 119.553 38.507C118.469 38.507 117.573 39.0574 117.182 39.9607H117.146C116.843 39.0363 116.076 38.507 115.021 38.507C113.995 38.507 113.2 39.0574 112.86 39.8831H112.824V38.634H111.335V46.0577Z" fill="#595959"/>
<path d="M126.434 39.7278C127.526 39.7278 128.263 40.5252 128.299 41.6614H124.497C124.577 40.5394 125.343 39.7278 126.434 39.7278ZM128.292 43.8772C128.082 44.5264 127.424 44.9639 126.535 44.9639C125.285 44.9639 124.49 44.1101 124.49 42.8187V42.727H129.86V42.2047C129.86 39.9536 128.545 38.4999 126.434 38.4999C124.288 38.4999 122.914 40.0524 122.914 42.3812C122.914 44.724 124.266 46.1989 126.499 46.1989C128.241 46.1989 129.557 45.2321 129.774 43.8772H128.292Z" fill="#595959"/>
<path d="M135.296 37.2015H137.522C138.773 37.2015 139.532 37.8931 139.532 39.0292C139.532 40.1936 138.816 40.864 137.566 40.864H135.296V37.2015ZM135.296 42.1412H137.522L139.647 46.0577H141.512L139.178 41.8943C140.45 41.4779 141.201 40.3629 141.201 38.9869C141.201 37.0886 139.864 35.8748 137.717 35.8748H133.677V46.0577H135.296V42.1412Z" fill="#595959"/>
<path d="M145.437 39.7278C146.529 39.7278 147.266 40.5252 147.302 41.6614H143.5C143.58 40.5394 144.346 39.7278 145.437 39.7278ZM147.295 43.8772C147.085 44.5264 146.427 44.9639 145.538 44.9639C144.288 44.9639 143.493 44.1101 143.493 42.8187V42.727H148.863V42.2047C148.863 39.9536 147.548 38.4999 145.437 38.4999C143.29 38.4999 141.917 40.0524 141.917 42.3812C141.917 44.724 143.269 46.1989 145.502 46.1989C147.244 46.1989 148.56 45.2321 148.776 43.8772H147.295Z" fill="#595959"/>
<path d="M152.441 44.9781C151.603 44.9781 151.053 44.5547 151.053 43.9054C151.053 43.2703 151.581 42.8681 152.513 42.8046L154.385 42.6917V43.2774C154.385 44.2442 153.533 44.9781 152.441 44.9781ZM152.008 46.1848C153.005 46.1848 153.966 45.6626 154.407 44.8369H154.443V46.0577H155.939V40.9416C155.939 39.4526 154.761 38.4999 152.918 38.4999C151.039 38.4999 149.868 39.4879 149.781 40.8287H151.256C151.393 40.1653 151.957 39.7419 152.86 39.7419C153.814 39.7419 154.385 40.2359 154.385 41.0616V41.6332L152.304 41.7531C150.497 41.8519 149.478 42.6493 149.478 43.9478C149.478 45.2815 150.519 46.1848 152.008 46.1848Z" fill="#595959"/>
<path d="M157.219 46.0577H158.78V35.8748H157.219V46.0577Z" fill="#595959"/>
<path d="M160.139 46.0577H161.701V38.634H160.139V46.0577ZM160.92 37.5473C161.426 37.5473 161.831 37.1592 161.831 36.6793C161.831 36.1924 161.426 35.8043 160.92 35.8043C160.421 35.8043 160.017 36.1924 160.017 36.6793C160.017 37.1592 160.421 37.5473 160.92 37.5473Z" fill="#595959"/>
<path d="M163.457 36.8769V38.634H162.351V39.8407H163.457V44.103C163.457 45.5355 164.057 46.1071 165.597 46.1071C165.944 46.1071 166.291 46.0789 166.464 46.0366V44.8299C166.363 44.851 166.11 44.8652 165.951 44.8652C165.315 44.8652 165.026 44.5758 165.026 43.9337V39.8407H166.471V38.634H165.026V36.8769H163.457Z" fill="#595959"/>
<path d="M168.213 48.824C169.796 48.824 170.541 48.2453 171.191 46.4459L174.046 38.634H172.398L170.469 44.6746H170.447L168.517 38.634H166.826L169.572 46.0648C169.572 46.0719 169.435 46.5094 169.435 46.5235C169.196 47.2856 168.813 47.582 168.083 47.582C167.953 47.582 167.693 47.582 167.577 47.5538V48.7887C167.693 48.8099 168.091 48.824 168.213 48.824Z" fill="#595959"/>
<path d="M182.631 8.19438C184.371 8.19438 185.402 7.33689 185.402 5.8945C185.402 4.80419 184.688 4.02053 183.578 3.87856V3.83313C184.365 3.69116 184.989 2.89614 184.989 2.04434C184.989 0.817734 184.042 0 182.643 0H179.543V8.19438H182.631ZM180.563 0.902915H182.41C183.402 0.902915 183.957 1.35153 183.957 2.16359C183.957 3.04947 183.3 3.53216 182.093 3.53216H180.563V0.902915ZM180.563 7.29146V4.41236H182.382C183.685 4.41236 184.354 4.89505 184.354 5.84339C184.354 6.79174 183.708 7.29146 182.478 7.29146H180.563Z" fill="#69C0FF"/>
<path d="M188.768 3.04379C189.698 3.04379 190.315 3.74795 190.338 4.73604H187.136C187.199 3.75363 187.845 3.04379 188.768 3.04379ZM190.315 6.50212C190.151 7.05864 189.601 7.43911 188.853 7.43911C187.794 7.43911 187.131 6.6952 187.131 5.56514V5.50835H191.358V5.13355C191.358 3.34476 190.378 2.1863 188.785 2.1863C187.159 2.1863 186.116 3.42994 186.116 5.26416C186.116 7.1211 187.142 8.2966 188.831 8.2966C190.117 8.2966 191.114 7.53565 191.284 6.50212H190.315Z" fill="#69C0FF"/>
<path d="M192.673 0.863164V2.28852H191.795V3.10058H192.673V6.66113C192.673 7.79687 193.092 8.23981 194.175 8.23981C194.407 8.23981 194.679 8.22277 194.798 8.19438V7.36529C194.73 7.37664 194.503 7.39368 194.39 7.39368C193.886 7.39368 193.659 7.1495 193.659 6.61002V3.10058H194.804V2.28852H193.659V0.863164H192.673Z" fill="#69C0FF"/>
<path d="M197.688 7.45615C196.98 7.45615 196.509 7.08703 196.509 6.52484C196.509 5.96832 196.963 5.61624 197.756 5.56514L199.331 5.4686V5.95129C199.331 6.80309 198.617 7.45615 197.688 7.45615ZM197.467 8.2966C198.26 8.2966 199.008 7.85366 199.36 7.17789H199.382V8.19438H200.318V4.11139C200.318 2.93589 199.445 2.1863 198.062 2.1863C196.668 2.1863 195.795 2.96997 195.727 3.99213H196.679C196.804 3.4129 197.28 3.05515 198.039 3.05515C198.855 3.05515 199.331 3.48673 199.331 4.20792V4.70197L197.643 4.79851C196.283 4.87801 195.506 5.51403 195.506 6.52484C195.506 7.58676 196.294 8.2966 197.467 8.2966Z" fill="#69C0FF"/>
<path d="M21.6535 26.3318V7.00158H15.8573L10.8814 19.4195H10.772L5.79613 7.00158H0V26.3318H4.41544V14.2621H4.52481L9.39136 26.1309H12.2621L17.1423 14.2621H17.238V26.3318H21.6535Z" fill="#595959"/>
<path d="M37.8864 26.3318H43.2178L36.5878 7.00158H30.4499L23.8199 26.3318H28.9325L30.1902 22.0853H36.6425L37.8864 26.3318ZM33.3616 11.1007H33.471L35.6582 18.5488H31.1607L33.3616 11.1007Z" fill="#595959"/>
<path d="M53.2582 26.6667C58.3435 26.6667 61.9797 23.6392 62.2121 19.0444H57.3866C57.0722 21.3083 55.4728 22.7283 53.2719 22.7283C50.5105 22.7283 48.7881 20.4376 48.7881 16.6466C48.7881 12.8958 50.5242 10.6051 53.2582 10.6051C55.4591 10.6051 57.1132 12.1054 57.3592 14.3827H62.1848C62.0344 9.81471 58.2478 6.66669 53.2582 6.66669C47.38 6.66669 43.6754 10.3505 43.6754 16.66C43.6754 22.9828 47.3527 26.6667 53.2582 26.6667Z" fill="#595959"/>
<path d="M82.7238 26.3318V7.00158H77.7206V14.5836H69.8603V7.00158H64.8433V26.3318H69.8603V18.5488H77.7206V26.3318H82.7238Z" fill="#595959"/>
<path d="M91.0282 26.3318V7.00158H86.0112V26.3318H91.0282Z" fill="#595959"/>
<path d="M99.0591 26.3318V14.9855H99.1684L107.576 26.3318H111.54V7.00158H106.783V18.2407H106.673L98.3072 7.00158H94.3019V26.3318H99.0591Z" fill="#595959"/>
<path d="M128.333 22.3666H119.831V18.4282H127.828V14.8114H119.831V10.9668H128.333V7.00158H114.814V26.3318H128.333V22.3666Z" fill="#595959"/>
<path fill-rule="evenodd" clip-rule="evenodd" d="M138.187 31.9825V0L141.089 0V31.9825H138.187Z" fill="#595959"/>
<path fill-rule="evenodd" clip-rule="evenodd" d="M171.598 31.9825V0L174.5 0V31.9825H171.598Z" fill="#595959"/>
<path d="M146.836 26.3907H152.214L156.089 19.9937H156.2L160.061 26.3907H165.743L159.468 16.5492V16.4535L165.798 6.66669H160.185L156.503 13.337H156.406L152.752 6.66669H146.85L152.917 16.3988V16.5082L146.836 26.3907Z" fill="#595959"/>
</svg>
