<svg width="209" height="53" viewBox="0 0 209 53" fill="none" xmlns="http://www.w3.org/2000/svg">
<path d="M6.85546 40.6824H6.93063L9.27592 48.8208H10.862L13.7936 38.027H12.0422L10.0351 46.4795H9.97499L7.67481 38.027H6.11128L3.81861 46.4795H3.75848L1.75145 38.027H0L2.92409 48.8208H4.51769L6.85546 40.6824Z" fill="#262626"/>
<path d="M14.6884 48.8208H16.3121V44.2729C16.3121 43.0312 17.0487 42.2084 18.2515 42.2084C19.394 42.2084 19.9804 42.904 19.9804 44.0634V48.8208H21.6115V43.7493C21.6115 41.969 20.5742 40.8171 18.8378 40.8171C17.6351 40.8171 16.7706 41.3481 16.3346 42.2682H16.2971V38.027H14.6884V48.8208Z" fill="#262626"/>
<path d="M26.1821 42.1111C27.3172 42.1111 28.0839 42.9564 28.1215 44.1607H24.1676C24.2503 42.9713 25.0471 42.1111 26.1821 42.1111ZM28.114 46.5095C27.896 47.1976 27.212 47.6614 26.2874 47.6614C24.9869 47.6614 24.1601 46.7563 24.1601 45.3874V45.2902H29.7452V44.7367C29.7452 42.3505 28.3771 40.8096 26.1821 40.8096C23.9496 40.8096 22.5214 42.4552 22.5214 44.9237C22.5214 47.4071 23.9271 48.9704 26.2498 48.9704C28.0614 48.9704 29.4295 47.9457 29.655 46.5095H28.114Z" fill="#262626"/>
<path d="M30.7001 48.8208H32.3238V44.1083C32.3238 42.9938 32.9702 42.2981 34.0151 42.2981C34.3308 42.2981 34.6165 42.3355 34.7443 42.3879V40.8844C34.624 40.8619 34.421 40.8245 34.188 40.8245C33.2559 40.8245 32.5493 41.3706 32.2862 42.2906H32.2486V40.9517H30.7001V48.8208Z" fill="#262626"/>
<path d="M38.4053 42.1111C39.5404 42.1111 40.3071 42.9564 40.3447 44.1607H36.3908C36.4735 42.9713 37.2702 42.1111 38.4053 42.1111ZM40.3372 46.5095C40.1192 47.1976 39.4351 47.6614 38.5105 47.6614C37.2101 47.6614 36.3833 46.7563 36.3833 45.3874V45.2902H41.9683V44.7367C41.9683 42.3505 40.6003 40.8096 38.4053 40.8096C36.1728 40.8096 34.7446 42.4552 34.7446 44.9237C34.7446 47.4071 36.1502 48.9704 38.473 48.9704C40.2845 48.9704 41.6526 47.9457 41.8781 46.5095H40.3372Z" fill="#262626"/>
<path d="M47.6217 48.8208V38.027H45.9379V48.8208H47.6217Z" fill="#262626"/>
<path d="M52.0871 48.9555C53.2372 48.9555 54.1392 48.3795 54.6052 47.4819H54.6353V48.8208H56.2139V38.027H54.5827V42.2607H54.5526C54.1091 41.393 53.2071 40.8245 52.072 40.8245C50.0876 40.8245 48.7646 42.4029 48.7646 44.8863C48.7646 47.3697 50.0876 48.9555 52.0871 48.9555ZM52.5155 42.1859C53.7633 42.1859 54.5977 43.2556 54.5977 44.8863C54.5977 46.5319 53.7633 47.5866 52.5155 47.5866C51.2301 47.5866 50.4258 46.5469 50.4258 44.8863C50.4258 43.2332 51.2301 42.1859 52.5155 42.1859Z" fill="#262626"/>
<path d="M60.8822 42.1111C62.0173 42.1111 62.784 42.9564 62.8216 44.1607H58.8677C58.9503 42.9713 59.7471 42.1111 60.8822 42.1111ZM62.8141 46.5095C62.5961 47.1976 61.912 47.6614 60.9874 47.6614C59.687 47.6614 58.8601 46.7563 58.8601 45.3874V45.2902H64.4452V44.7367C64.4452 42.3505 63.0771 40.8096 60.8822 40.8096C58.6497 40.8096 57.2214 42.4552 57.2214 44.9237C57.2214 47.4071 58.6271 48.9704 60.9499 48.9704C62.7614 48.9704 64.1295 47.9457 64.355 46.5095H62.8141Z" fill="#262626"/>
<path d="M68.1664 47.6764C67.2945 47.6764 66.7232 47.2276 66.7232 46.5394C66.7232 45.8662 67.2719 45.4398 68.2416 45.3725L70.1885 45.2528V45.8737C70.1885 46.8984 69.3015 47.6764 68.1664 47.6764ZM67.7154 48.9555C68.7527 48.9555 69.7525 48.4019 70.211 47.5268H70.2486V48.8208H71.8046V43.3977C71.8046 41.8194 70.5794 40.8096 68.6625 40.8096C66.7081 40.8096 65.4904 41.8568 65.4002 43.278H66.9336C67.0765 42.5749 67.6628 42.1261 68.6024 42.1261C69.5946 42.1261 70.1885 42.6497 70.1885 43.5249V44.1308L68.0236 44.2579C66.1444 44.3627 65.0845 45.2079 65.0845 46.5843C65.0845 47.998 66.1669 48.9555 67.7154 48.9555Z" fill="#262626"/>
<path d="M72.9325 43.1808C72.9325 44.2804 73.6541 45.0209 75.0823 45.365L76.4955 45.7091C77.3224 45.9185 77.623 46.1953 77.623 46.6965C77.623 47.3323 77.0217 47.7362 76.0445 47.7362C75.0523 47.7362 74.4659 47.3173 74.3381 46.5618H72.7295C72.8573 48.0055 74.0976 48.9704 75.9693 48.9704C77.9087 48.9704 79.2542 47.9831 79.2542 46.5469C79.2542 45.3874 78.6529 44.789 77.0593 44.4075L75.7288 44.1009C74.9094 43.8989 74.5185 43.5698 74.5185 43.0835C74.5185 42.4627 75.1049 42.0363 75.9844 42.0363C76.8939 42.0363 77.4727 42.4777 77.5479 43.1883H79.0738C79.0212 41.7895 77.7884 40.8096 76.0295 40.8096C74.1803 40.8096 72.9325 41.7745 72.9325 43.1808Z" fill="#262626"/>
<path d="M87.5761 48.8208C89.8838 48.8208 91.2744 47.6689 91.2744 45.7689C91.2744 44.3327 90.2822 43.293 88.8089 43.1284V43.0686C89.8913 42.8891 90.7407 41.8643 90.7407 40.7198C90.7407 39.0891 89.4779 38.027 87.5535 38.027H83.2238V48.8208H87.5761ZM84.9076 39.3958H87.1476C88.3654 39.3958 89.0569 39.9494 89.0569 40.9517C89.0569 42.0214 88.2526 42.6198 86.7943 42.6198H84.9076V39.3958ZM84.9076 47.452V43.8989H87.1326C88.7262 43.8989 89.5531 44.4973 89.5531 45.6642C89.5531 46.8311 88.7487 47.452 87.2303 47.452H84.9076Z" fill="#262626"/>
<path d="M95.5293 42.1111C96.6644 42.1111 97.4311 42.9564 97.4687 44.1607H93.5148C93.5975 42.9713 94.3943 42.1111 95.5293 42.1111ZM97.4612 46.5095C97.2432 47.1976 96.5592 47.6614 95.6346 47.6614C94.3341 47.6614 93.5073 46.7563 93.5073 45.3874V45.2902H99.0924V44.7367C99.0924 42.3505 97.7243 40.8096 95.5293 40.8096C93.2968 40.8096 91.8686 42.4552 91.8686 44.9237C91.8686 47.4071 93.2742 48.9704 95.597 48.9704C97.4086 48.9704 98.7766 47.9457 99.0022 46.5095H97.4612Z" fill="#262626"/>
<path d="M106.835 43.6595C106.692 42.1111 105.452 40.8096 103.415 40.8096C101.167 40.8096 99.694 42.3879 99.694 44.8863C99.694 47.4295 101.167 48.9704 103.43 48.9704C105.332 48.9704 106.677 47.8335 106.85 46.1579H105.287C105.099 47.0705 104.445 47.6165 103.445 47.6165C102.182 47.6165 101.348 46.6142 101.348 44.8863C101.348 43.1957 102.175 42.156 103.43 42.156C104.49 42.156 105.121 42.8217 105.287 43.6595H106.835Z" fill="#262626"/>
<path d="M111.09 48.9704C113.353 48.9704 114.841 47.422 114.841 44.8863C114.841 42.358 113.345 40.8096 111.09 40.8096C108.835 40.8096 107.339 42.358 107.339 44.8863C107.339 47.422 108.827 48.9704 111.09 48.9704ZM111.09 47.639C109.82 47.639 108.993 46.6366 108.993 44.8863C108.993 43.1434 109.82 42.141 111.09 42.141C112.36 42.141 113.187 43.1434 113.187 44.8863C113.187 46.6366 112.368 47.639 111.09 47.639Z" fill="#262626"/>
<path d="M115.788 48.8208H117.412V43.9587C117.412 42.9489 118.096 42.2009 119.058 42.2009C119.975 42.2009 120.554 42.7769 120.554 43.682V48.8208H122.148V43.9064C122.148 42.9115 122.817 42.2009 123.779 42.2009C124.741 42.2009 125.29 42.7843 125.29 43.8016V48.8208H126.921V43.4127C126.921 41.8493 125.899 40.8171 124.335 40.8171C123.208 40.8171 122.276 41.4005 121.87 42.358H121.832C121.516 41.3781 120.72 40.8171 119.622 40.8171C118.555 40.8171 117.728 41.4005 117.374 42.2757H117.337V40.9517H115.788V48.8208Z" fill="#262626"/>
<path d="M131.492 42.1111C132.627 42.1111 133.393 42.9564 133.431 44.1607H129.477C129.56 42.9713 130.357 42.1111 131.492 42.1111ZM133.423 46.5095C133.205 47.1976 132.521 47.6614 131.597 47.6614C130.296 47.6614 129.47 46.7563 129.47 45.3874V45.2902H135.055V44.7367C135.055 42.3505 133.687 40.8096 131.492 40.8096C129.259 40.8096 127.831 42.4552 127.831 44.9237C127.831 47.4071 129.237 48.9704 131.559 48.9704C133.371 48.9704 134.739 47.9457 134.964 46.5095H133.423Z" fill="#262626"/>
<path d="M140.708 39.4332H143.023C144.324 39.4332 145.113 40.1663 145.113 41.3706C145.113 42.6048 144.369 43.3154 143.068 43.3154H140.708V39.4332ZM140.708 44.6693H143.023L145.233 48.8208H147.173L144.745 44.4075C146.068 43.9662 146.849 42.7843 146.849 41.3257C146.849 39.3135 145.459 38.027 143.226 38.027H139.024V48.8208H140.708V44.6693Z" fill="#262626"/>
<path d="M151.255 42.1111C152.39 42.1111 153.156 42.9564 153.194 44.1607H149.24C149.323 42.9713 150.12 42.1111 151.255 42.1111ZM153.186 46.5095C152.968 47.1976 152.284 47.6614 151.36 47.6614C150.059 47.6614 149.233 46.7563 149.233 45.3874V45.2902H154.818V44.7367C154.818 42.3505 153.45 40.8096 151.255 40.8096C149.022 40.8096 147.594 42.4552 147.594 44.9237C147.594 47.4071 149 48.9704 151.322 48.9704C153.134 48.9704 154.502 47.9457 154.727 46.5095H153.186Z" fill="#262626"/>
<path d="M158.539 47.6764C157.667 47.6764 157.096 47.2276 157.096 46.5394C157.096 45.8662 157.644 45.4398 158.614 45.3725L160.561 45.2528V45.8737C160.561 46.8984 159.674 47.6764 158.539 47.6764ZM158.088 48.9555C159.125 48.9555 160.125 48.4019 160.583 47.5268H160.621V48.8208H162.177V43.3977C162.177 41.8194 160.952 40.8096 159.035 40.8096C157.081 40.8096 155.863 41.8568 155.773 43.278H157.306C157.449 42.5749 158.035 42.1261 158.975 42.1261C159.967 42.1261 160.561 42.6497 160.561 43.5249V44.1308L158.396 44.2579C156.517 44.3627 155.457 45.2079 155.457 46.5843C155.457 47.998 156.539 48.9555 158.088 48.9555Z" fill="#262626"/>
<path d="M163.508 48.8208H165.131V38.027H163.508V48.8208Z" fill="#262626"/>
<path d="M166.545 48.8208H168.169V40.9517H166.545V48.8208ZM167.357 39.7998C167.883 39.7998 168.304 39.3883 168.304 38.8797C168.304 38.3636 167.883 37.9521 167.357 37.9521C166.838 37.9521 166.417 38.3636 166.417 38.8797C166.417 39.3883 166.838 39.7998 167.357 39.7998Z" fill="#262626"/>
<path d="M169.996 39.0891V40.9517H168.845V42.2308H169.996V46.7488C169.996 48.2673 170.619 48.8732 172.221 48.8732C172.581 48.8732 172.942 48.8433 173.123 48.7984V47.5193C173.017 47.5417 172.754 47.5567 172.589 47.5567C171.927 47.5567 171.627 47.25 171.627 46.5693V42.2308H173.13V40.9517H171.627V39.0891H169.996Z" fill="#262626"/>
<path d="M174.942 51.7531C176.588 51.7531 177.362 51.1397 178.039 49.2322L181.008 40.9517H179.294L177.287 47.3547H177.265L175.258 40.9517H173.499L176.355 48.8283C176.355 48.8358 176.212 49.2996 176.212 49.3145C175.964 50.1224 175.566 50.4366 174.807 50.4366C174.671 50.4366 174.401 50.4366 174.281 50.4066V51.7157C174.401 51.7381 174.814 51.7531 174.942 51.7531Z" fill="#262626"/>
<path d="M189.936 8.68604C191.746 8.68604 192.818 7.77711 192.818 6.24817C192.818 5.09244 192.076 4.26176 190.921 4.11127V4.06312C191.74 3.91263 192.388 3.06991 192.388 2.167C192.388 0.866798 191.404 0 189.948 0H186.724V8.68604H189.936ZM187.785 0.95709H189.707C190.738 0.95709 191.315 1.43263 191.315 2.2934C191.315 3.23244 190.632 3.74409 189.376 3.74409H187.785V0.95709ZM187.785 7.72895V4.6771H189.677C191.033 4.6771 191.728 5.18875 191.728 6.194C191.728 7.19924 191.056 7.72895 189.777 7.72895H187.785Z" fill="#8C8C8C"/>
<path d="M196.319 3.22642C197.286 3.22642 197.928 3.97283 197.952 5.02021H194.622C194.687 3.97885 195.358 3.22642 196.319 3.22642ZM197.928 6.89225C197.757 7.48216 197.185 7.88546 196.407 7.88546C195.305 7.88546 194.616 7.09691 194.616 5.89904V5.83885H199.012V5.44157C199.012 3.54545 197.993 2.31748 196.337 2.31748C194.645 2.31748 193.561 3.63574 193.561 5.58001C193.561 7.54837 194.628 8.79439 196.384 8.79439C197.722 8.79439 198.759 7.98779 198.936 6.89225H197.928Z" fill="#8C8C8C"/>
<path d="M200.38 0.914954V2.42583H199.466V3.28661H200.38V7.06079C200.38 8.26468 200.816 8.7342 201.942 8.7342C202.183 8.7342 202.466 8.71614 202.59 8.68604V7.8072C202.519 7.81924 202.283 7.8373 202.165 7.8373C201.641 7.8373 201.405 7.57847 201.405 7.00662V3.28661H202.596V2.42583H201.405V0.914954H200.38Z" fill="#8C8C8C"/>
<path d="M205.596 7.90352C204.859 7.90352 204.37 7.51225 204.37 6.91633C204.37 6.32642 204.841 5.95322 205.666 5.89904L207.305 5.79671V6.30837C207.305 7.21128 206.562 7.90352 205.596 7.90352ZM205.366 8.79439C206.191 8.79439 206.969 8.32488 207.334 7.60856H207.358V8.68604H208.33V4.35807C208.33 3.11205 207.423 2.31748 205.984 2.31748C204.535 2.31748 203.627 3.14816 203.556 4.23166H204.546C204.676 3.61768 205.171 3.23846 205.961 3.23846C206.81 3.23846 207.305 3.69593 207.305 4.4604V4.98409L205.548 5.08642C204.134 5.17069 203.326 5.84487 203.326 6.91633C203.326 8.04196 204.146 8.79439 205.366 8.79439Z" fill="#8C8C8C"/>
<path d="M10.0537 27.9161C15.389 27.9161 19.2039 24.6416 19.4477 19.6719H14.385C14.0551 22.1205 12.3771 23.6563 10.0681 23.6563C7.17099 23.6563 5.3639 21.1788 5.3639 17.0784C5.3639 13.0215 7.18534 10.5439 10.0537 10.5439C12.3628 10.5439 14.0982 12.1667 14.3563 14.6298H19.4191C19.2613 9.68907 15.2886 6.28418 10.0537 6.28418C3.88668 6.28418 0 10.2686 0 17.0929C0 23.9316 3.85799 27.9161 10.0537 27.9161Z" fill="#262626"/>
<path d="M31.5667 6.28418C25.2993 6.28418 21.3409 10.4425 21.3409 17.1074C21.3409 23.7723 25.2849 27.9161 31.5667 27.9161C37.8342 27.9161 41.7782 23.7723 41.7782 17.1074C41.7782 10.4425 37.8342 6.28418 31.5667 6.28418ZM31.5667 10.6019C34.5068 10.6019 36.4286 13.1229 36.4286 17.1074C36.4286 21.0773 34.5068 23.5984 31.5667 23.5984C28.6123 23.5984 26.7048 21.0773 26.7048 17.1074C26.7048 13.1229 28.6266 10.6019 31.5667 10.6019Z" fill="#262626"/>
<path d="M49.3364 27.5539V15.2818H49.4512L58.2715 27.5539H62.4307V6.6464H57.4397V18.8026H57.3249L48.5476 6.6464H44.3454V27.5539H49.3364Z" fill="#262626"/>
<path d="M75.0516 27.9161C80.3868 27.9161 84.2018 24.6416 84.4456 19.6719H79.3829C79.053 22.1205 77.375 23.6563 75.066 23.6563C72.1689 23.6563 70.3618 21.1788 70.3618 17.0784C70.3618 13.0215 72.1832 10.5439 75.0516 10.5439C77.3607 10.5439 79.0961 12.1667 79.3542 14.6298H84.4169C84.2592 9.68907 80.2864 6.28418 75.0516 6.28418C68.8846 6.28418 64.9979 10.2686 64.9979 17.0929C64.9979 23.9316 68.8559 27.9161 75.0516 27.9161Z" fill="#262626"/>
<path d="M101.097 23.2651H92.1759V19.0054H100.566V15.0934H92.1759V10.9351H101.097V6.6464H86.9124V27.5539H101.097V23.2651Z" fill="#262626"/>
<path d="M104.065 6.6464V27.5539H109.329V21.4251H112.714C117.317 21.4251 120.487 18.5128 120.487 14.0502C120.487 9.55867 117.475 6.6464 113.029 6.6464H104.065ZM109.329 10.7178H111.638C113.847 10.7178 115.166 11.8914 115.166 14.0647C115.166 16.2525 113.847 17.4261 111.609 17.4261H109.329V10.7178Z" fill="#262626"/>
<path d="M132.879 27.5539V10.9351H138.587V6.6464H121.921V10.9351H127.629V27.5539H132.879Z" fill="#262626"/>
<path fill-rule="evenodd" clip-rule="evenodd" d="M143.715 33.9014V0L146.732 0V33.9014H143.715Z" fill="#262626"/>
<path fill-rule="evenodd" clip-rule="evenodd" d="M178.462 33.9014V0L181.479 0V33.9014H178.462Z" fill="#262626"/>
<path d="M152.709 27.5539H158.303L162.333 20.7731H162.448L166.463 27.5539H172.372L165.847 17.1219V17.0205L172.43 6.64648H166.593L162.763 13.7171H162.663L158.862 6.64648H152.724L159.034 16.9626V17.0785L152.709 27.5539Z" fill="#262626"/>
</svg>
