<svg width="210" height="53" viewBox="0 0 210 53" fill="none" xmlns="http://www.w3.org/2000/svg">
<path d="M6.59179 41.38H6.66407L8.91915 49.0577H10.4442L13.2631 38.8748H11.579L9.64916 46.849H9.59134L7.37962 38.8748H5.87623L3.67174 46.849H3.61392L1.68409 38.8748H0L2.81163 49.0577H4.34393L6.59179 41.38Z" fill="#E8E8E8"/>
<path d="M14.1235 49.0577H15.6847V44.7672C15.6847 43.5958 16.393 42.8196 17.5495 42.8196C18.6481 42.8196 19.2119 43.4758 19.2119 44.5696V49.0577H20.7803V44.2733C20.7803 42.5937 19.7829 41.507 18.1133 41.507C16.9568 41.507 16.1256 42.008 15.7064 42.876H15.6702V38.8748H14.1235V49.0577Z" fill="#E8E8E8"/>
<path d="M25.1751 42.7278C26.2665 42.7278 27.0038 43.5252 27.0399 44.6614H23.2381C23.3176 43.5394 24.0837 42.7278 25.1751 42.7278ZM27.0327 46.8772C26.8231 47.5264 26.1654 47.9639 25.2763 47.9639C24.0259 47.9639 23.2309 47.1101 23.2309 45.8187V45.7269H28.6011V45.2047C28.6011 42.9536 27.2857 41.4999 25.1751 41.4999C23.0285 41.4999 21.6552 43.0524 21.6552 45.3812C21.6552 47.724 23.0068 49.1989 25.2402 49.1989C26.9821 49.1989 28.2976 48.2321 28.5144 46.8772H27.0327Z" fill="#E8E8E8"/>
<path d="M29.5194 49.0577H31.0806V44.612C31.0806 43.5605 31.7022 42.9042 32.7068 42.9042C33.0104 42.9042 33.2851 42.9395 33.4079 42.9889V41.5705C33.2923 41.5493 33.0971 41.5141 32.8731 41.5141C31.9768 41.5141 31.2974 42.0292 31.0444 42.8972H31.0083V41.634H29.5194V49.0577Z" fill="#E8E8E8"/>
<path d="M36.9282 42.7278C38.0196 42.7278 38.7568 43.5252 38.793 44.6614H34.9911C35.0706 43.5394 35.8368 42.7278 36.9282 42.7278ZM38.7857 46.8772C38.5761 47.5264 37.9184 47.9639 37.0294 47.9639C35.779 47.9639 34.9839 47.1101 34.9839 45.8187V45.7269H40.3542V45.2047C40.3542 42.9536 39.0387 41.4999 36.9282 41.4999C34.7815 41.4999 33.4082 43.0524 33.4082 45.3812C33.4082 47.724 34.7598 49.1989 36.9932 49.1989C38.7351 49.1989 40.0506 48.2321 40.2674 46.8772H38.7857Z" fill="#E8E8E8"/>
<path d="M45.7901 49.0577V38.8748H44.1711V49.0577H45.7901Z" fill="#E8E8E8"/>
<path d="M50.0837 49.1848C51.1896 49.1848 52.0569 48.6414 52.505 47.7946H52.5339V49.0577H54.0518V38.8748H52.4834V42.869H52.4544C52.028 42.0504 51.1607 41.5141 50.0693 41.5141C48.1611 41.5141 46.889 43.003 46.889 45.3459C46.889 47.6887 48.1611 49.1848 50.0837 49.1848ZM50.4957 42.7984C51.6955 42.7984 52.4978 43.8075 52.4978 45.3459C52.4978 46.8984 51.6955 47.8934 50.4957 47.8934C49.2597 47.8934 48.4864 46.9125 48.4864 45.3459C48.4864 43.7863 49.2597 42.7984 50.4957 42.7984Z" fill="#E8E8E8"/>
<path d="M58.5406 42.7278C59.632 42.7278 60.3692 43.5252 60.4054 44.6614H56.6035C56.683 43.5394 57.4492 42.7278 58.5406 42.7278ZM60.3981 46.8772C60.1885 47.5264 59.5308 47.9639 58.6418 47.9639C57.3914 47.9639 56.5963 47.1101 56.5963 45.8187V45.7269H61.9666V45.2047C61.9666 42.9536 60.6511 41.4999 58.5406 41.4999C56.3939 41.4999 55.0206 43.0524 55.0206 45.3812C55.0206 47.724 56.3722 49.1989 58.6056 49.1989C60.3475 49.1989 61.663 48.2321 61.8798 46.8772H60.3981Z" fill="#E8E8E8"/>
<path d="M65.5446 47.9781C64.7062 47.9781 64.1569 47.5547 64.1569 46.9054C64.1569 46.2703 64.6845 45.8681 65.6169 45.8046L67.4889 45.6917V46.2774C67.4889 47.2442 66.636 47.9781 65.5446 47.9781ZM65.111 49.1848C66.1084 49.1848 67.0697 48.6626 67.5106 47.8369H67.5468V49.0577H69.0429V43.9416C69.0429 42.4526 67.8648 41.4999 66.0217 41.4999C64.1424 41.4999 62.9715 42.4879 62.8848 43.8287H64.3593C64.4966 43.1653 65.0604 42.7419 65.9639 42.7419C66.9179 42.7419 67.4889 43.2359 67.4889 44.0616V44.6332L65.4073 44.7531C63.6004 44.8519 62.5812 45.6493 62.5812 46.9478C62.5812 48.2815 63.622 49.1848 65.111 49.1848Z" fill="#E8E8E8"/>
<path d="M70.1274 43.7369C70.1274 44.7743 70.8213 45.4729 72.1945 45.7975L73.5534 46.1221C74.3484 46.3197 74.6375 46.5808 74.6375 47.0536C74.6375 47.6534 74.0593 48.0345 73.1197 48.0345C72.1656 48.0345 71.6019 47.6393 71.479 46.9266H69.9322C70.0551 48.2886 71.2477 49.1989 73.0474 49.1989C74.9122 49.1989 76.206 48.2674 76.206 46.9125C76.206 45.8187 75.6278 45.2541 74.0955 44.8943L72.8161 44.6049C72.0283 44.4144 71.6525 44.1039 71.6525 43.6452C71.6525 43.0595 72.2162 42.6573 73.0619 42.6573C73.9364 42.6573 74.493 43.0736 74.5653 43.744H76.0325C75.9819 42.4244 74.7966 41.4999 73.1052 41.4999C71.3272 41.4999 70.1274 42.4103 70.1274 43.7369Z" fill="#E8E8E8"/>
<path d="M84.2078 49.0577C86.4267 49.0577 87.7639 47.971 87.7639 46.1786C87.7639 44.8237 86.8098 43.8428 85.3932 43.6875V43.6311C86.434 43.4617 87.2507 42.495 87.2507 41.4153C87.2507 39.8769 86.0364 38.8748 84.1861 38.8748H80.0229V49.0577H84.2078ZM81.6419 40.1662H83.7958C84.9667 40.1662 85.6317 40.6884 85.6317 41.634C85.6317 42.6431 84.8583 43.2077 83.4561 43.2077H81.6419V40.1662ZM81.6419 47.7664V44.4144H83.7813C85.3136 44.4144 86.1087 44.9789 86.1087 46.0798C86.1087 47.1806 85.3353 47.7664 83.8753 47.7664H81.6419Z" fill="#E8E8E8"/>
<path d="M91.8551 42.7278C92.9465 42.7278 93.6838 43.5252 93.7199 44.6614H89.9181C89.9976 43.5394 90.7637 42.7278 91.8551 42.7278ZM93.7127 46.8772C93.5031 47.5264 92.8453 47.9639 91.9563 47.9639C90.7059 47.9639 89.9108 47.1101 89.9108 45.8187V45.7269H95.2811V45.2047C95.2811 42.9536 93.9657 41.4999 91.8551 41.4999C89.7085 41.4999 88.3352 43.0524 88.3352 45.3812C88.3352 47.724 89.6868 49.1989 91.9202 49.1989C93.6621 49.1989 94.9776 48.2321 95.1944 46.8772H93.7127Z" fill="#E8E8E8"/>
<path d="M102.726 44.1886C102.589 42.7278 101.396 41.4999 99.4374 41.4999C97.2763 41.4999 95.8596 42.9889 95.8596 45.3459C95.8596 47.7452 97.2763 49.1989 99.4519 49.1989C101.281 49.1989 102.574 48.1263 102.741 46.5455H101.237C101.056 47.4065 100.428 47.9216 99.4663 47.9216C98.2521 47.9216 97.4498 46.976 97.4498 45.3459C97.4498 43.7511 98.2448 42.7702 99.4519 42.7702C100.471 42.7702 101.078 43.3982 101.237 44.1886H102.726Z" fill="#E8E8E8"/>
<path d="M106.817 49.1989C108.993 49.1989 110.424 47.7381 110.424 45.3459C110.424 42.9607 108.986 41.4999 106.817 41.4999C104.649 41.4999 103.211 42.9607 103.211 45.3459C103.211 47.7381 104.642 49.1989 106.817 49.1989ZM106.817 47.9428C105.596 47.9428 104.801 46.9972 104.801 45.3459C104.801 43.7017 105.596 42.7561 106.817 42.7561C108.039 42.7561 108.834 43.7017 108.834 45.3459C108.834 46.9972 108.046 47.9428 106.817 47.9428Z" fill="#E8E8E8"/>
<path d="M111.335 49.0577H112.896V44.4708C112.896 43.5182 113.554 42.8125 114.479 42.8125C115.361 42.8125 115.917 43.3559 115.917 44.2097V49.0577H117.45V44.4214C117.45 43.4829 118.093 42.8125 119.018 42.8125C119.943 42.8125 120.471 43.3629 120.471 44.3227V49.0577H122.039V43.9557C122.039 42.4808 121.056 41.507 119.553 41.507C118.469 41.507 117.573 42.0574 117.182 42.9607H117.146C116.843 42.0363 116.076 41.507 115.021 41.507C113.995 41.507 113.2 42.0574 112.86 42.8831H112.824V41.634H111.335V49.0577Z" fill="#E8E8E8"/>
<path d="M126.434 42.7278C127.526 42.7278 128.263 43.5252 128.299 44.6614H124.497C124.577 43.5394 125.343 42.7278 126.434 42.7278ZM128.292 46.8772C128.082 47.5264 127.424 47.9639 126.535 47.9639C125.285 47.9639 124.49 47.1101 124.49 45.8187V45.7269H129.86V45.2047C129.86 42.9536 128.545 41.4999 126.434 41.4999C124.288 41.4999 122.914 43.0524 122.914 45.3812C122.914 47.724 124.266 49.1989 126.499 49.1989C128.241 49.1989 129.557 48.2321 129.774 46.8772H128.292Z" fill="#E8E8E8"/>
<path d="M135.296 40.2015H137.522C138.773 40.2015 139.532 40.8931 139.532 42.0292C139.532 43.1936 138.816 43.864 137.566 43.864H135.296V40.2015ZM135.296 45.1412H137.522L139.647 49.0577H141.512L139.178 44.8943C140.45 44.4779 141.201 43.3629 141.201 41.9869C141.201 40.0886 139.864 38.8748 137.717 38.8748H133.677V49.0577H135.296V45.1412Z" fill="#E8E8E8"/>
<path d="M145.437 42.7278C146.529 42.7278 147.266 43.5252 147.302 44.6614H143.5C143.58 43.5394 144.346 42.7278 145.437 42.7278ZM147.295 46.8772C147.085 47.5264 146.427 47.9639 145.538 47.9639C144.288 47.9639 143.493 47.1101 143.493 45.8187V45.7269H148.863V45.2047C148.863 42.9536 147.548 41.4999 145.437 41.4999C143.29 41.4999 141.917 43.0524 141.917 45.3812C141.917 47.724 143.269 49.1989 145.502 49.1989C147.244 49.1989 148.56 48.2321 148.776 46.8772H147.295Z" fill="#E8E8E8"/>
<path d="M152.441 47.9781C151.603 47.9781 151.053 47.5547 151.053 46.9054C151.053 46.2703 151.581 45.8681 152.513 45.8046L154.385 45.6917V46.2774C154.385 47.2442 153.533 47.9781 152.441 47.9781ZM152.008 49.1848C153.005 49.1848 153.966 48.6626 154.407 47.8369H154.443V49.0577H155.939V43.9416C155.939 42.4526 154.761 41.4999 152.918 41.4999C151.039 41.4999 149.868 42.4879 149.781 43.8287H151.256C151.393 43.1653 151.957 42.7419 152.86 42.7419C153.814 42.7419 154.385 43.2359 154.385 44.0616V44.6332L152.304 44.7531C150.497 44.8519 149.478 45.6493 149.478 46.9478C149.478 48.2815 150.519 49.1848 152.008 49.1848Z" fill="#E8E8E8"/>
<path d="M157.219 49.0577H158.78V38.8748H157.219V49.0577Z" fill="#E8E8E8"/>
<path d="M160.139 49.0577H161.701V41.634H160.139V49.0577ZM160.92 40.5473C161.426 40.5473 161.831 40.1592 161.831 39.6793C161.831 39.1924 161.426 38.8043 160.92 38.8043C160.421 38.8043 160.017 39.1924 160.017 39.6793C160.017 40.1592 160.421 40.5473 160.92 40.5473Z" fill="#E8E8E8"/>
<path d="M163.457 39.8769V41.634H162.351V42.8407H163.457V47.103C163.457 48.5355 164.057 49.1071 165.597 49.1071C165.944 49.1071 166.291 49.0789 166.464 49.0366V47.8299C166.363 47.851 166.11 47.8652 165.951 47.8652C165.315 47.8652 165.026 47.5758 165.026 46.9337V42.8407H166.471V41.634H165.026V39.8769H163.457Z" fill="#E8E8E8"/>
<path d="M168.213 51.824C169.796 51.824 170.541 51.2453 171.191 49.4459L174.046 41.634H172.398L170.469 47.6746H170.447L168.517 41.634H166.826L169.572 49.0648C169.572 49.0719 169.435 49.5094 169.435 49.5235C169.196 50.2856 168.813 50.582 168.083 50.582C167.953 50.582 167.693 50.582 167.577 50.5538V51.7887C167.693 51.8099 168.091 51.824 168.213 51.824Z" fill="#E8E8E8"/>
<path d="M21.6535 29.3318V10.0016H15.8573L10.8814 22.4195H10.772L5.79613 10.0016H0V29.3318H4.41544V17.2621H4.52481L9.39136 29.1309H12.2621L17.1423 17.2621H17.238V29.3318H21.6535Z" fill="#E8E8E8"/>
<path d="M37.8864 29.3318H43.2178L36.5878 10.0016H30.4499L23.8199 29.3318H28.9325L30.1902 25.0853H36.6425L37.8864 29.3318ZM33.3616 14.1007H33.471L35.6582 21.5488H31.1607L33.3616 14.1007Z" fill="#E8E8E8"/>
<path d="M53.2582 29.6667C58.3435 29.6667 61.9797 26.6392 62.2121 22.0445H57.3866C57.0722 24.3083 55.4728 25.7283 53.2719 25.7283C50.5105 25.7283 48.7881 23.4376 48.7881 19.6466C48.7881 15.8958 50.5242 13.6051 53.2582 13.6051C55.4591 13.6051 57.1132 15.1054 57.3592 17.3827H62.1848C62.0344 12.8147 58.2478 9.66669 53.2582 9.66669C47.38 9.66669 43.6754 13.3505 43.6754 19.66C43.6754 25.9828 47.3527 29.6667 53.2582 29.6667Z" fill="#E8E8E8"/>
<path d="M82.7238 29.3318V10.0016H77.7206V17.5836H69.8603V10.0016H64.8433V29.3318H69.8603V21.5488H77.7206V29.3318H82.7238Z" fill="#E8E8E8"/>
<path d="M91.0282 29.3318V10.0016H86.0112V29.3318H91.0282Z" fill="#E8E8E8"/>
<path d="M99.0591 29.3318V17.9855H99.1684L107.576 29.3318H111.54V10.0016H106.783V21.2407H106.673L98.3072 10.0016H94.3019V29.3318H99.0591Z" fill="#E8E8E8"/>
<path d="M128.333 25.3666H119.831V21.4282H127.828V17.8114H119.831V13.9668H128.333V10.0016H114.814V29.3318H128.333V25.3666Z" fill="#E8E8E8"/>
<path fill-rule="evenodd" clip-rule="evenodd" d="M138.187 34.9825V3H141.089V34.9825H138.187Z" fill="#E8E8E8"/>
<path fill-rule="evenodd" clip-rule="evenodd" d="M171.598 34.9825V3H174.5V34.9825H171.598Z" fill="#E8E8E8"/>
<path d="M146.836 29.3907H152.214L156.089 22.9937H156.2L160.061 29.3907H165.743L159.468 19.5492V19.4535L165.798 9.66669H160.185L156.503 16.337H156.406L152.752 9.66669H146.85L152.917 19.3988V19.5082L146.836 29.3907Z" fill="#E8E8E8"/>
<path d="M184.701 8.77344H181.127L180.324 11H179.164L182.422 2.46875H183.406L186.67 11H185.516L184.701 8.77344ZM181.467 7.84766H184.367L182.914 3.85742L181.467 7.84766ZM188.826 11H187.742V2H188.826V11ZM195.922 7.90039C195.922 8.86523 195.701 9.64258 195.26 10.2324C194.818 10.8223 194.221 11.1172 193.467 11.1172C192.697 11.1172 192.092 10.873 191.65 10.3848V13.4375H190.566V4.66016H191.557L191.609 5.36328C192.051 4.81641 192.664 4.54297 193.449 4.54297C194.211 4.54297 194.812 4.83008 195.254 5.4043C195.699 5.97852 195.922 6.77734 195.922 7.80078V7.90039ZM194.838 7.77734C194.838 7.0625 194.686 6.49805 194.381 6.08398C194.076 5.66992 193.658 5.46289 193.127 5.46289C192.471 5.46289 191.979 5.75391 191.65 6.33594V9.36523C191.975 9.94336 192.471 10.2324 193.139 10.2324C193.658 10.2324 194.07 10.0273 194.375 9.61719C194.684 9.20312 194.838 8.58984 194.838 7.77734ZM198.389 5.42773C198.869 4.83789 199.494 4.54297 200.264 4.54297C201.604 4.54297 202.279 5.29883 202.291 6.81055V11H201.207V6.80469C201.203 6.34766 201.098 6.00977 200.891 5.79102C200.688 5.57227 200.369 5.46289 199.936 5.46289C199.584 5.46289 199.275 5.55664 199.01 5.74414C198.744 5.93164 198.537 6.17773 198.389 6.48242V11H197.305V2H198.389V5.42773ZM207.828 11C207.766 10.875 207.715 10.6523 207.676 10.332C207.172 10.8555 206.57 11.1172 205.871 11.1172C205.246 11.1172 204.732 10.9414 204.33 10.5898C203.932 10.2344 203.732 9.78516 203.732 9.24219C203.732 8.58203 203.982 8.07031 204.482 7.70703C204.986 7.33984 205.693 7.15625 206.604 7.15625H207.658V6.6582C207.658 6.2793 207.545 5.97852 207.318 5.75586C207.092 5.5293 206.758 5.41602 206.316 5.41602C205.93 5.41602 205.605 5.51367 205.344 5.70898C205.082 5.9043 204.951 6.14062 204.951 6.41797H203.861C203.861 6.10156 203.973 5.79688 204.195 5.50391C204.422 5.20703 204.727 4.97266 205.109 4.80078C205.496 4.62891 205.92 4.54297 206.381 4.54297C207.111 4.54297 207.684 4.72656 208.098 5.09375C208.512 5.45703 208.727 5.95898 208.742 6.59961V9.51758C208.742 10.0996 208.816 10.5625 208.965 10.9062V11H207.828ZM206.029 10.1738C206.369 10.1738 206.691 10.0859 206.996 9.91016C207.301 9.73438 207.521 9.50586 207.658 9.22461V7.92383H206.809C205.48 7.92383 204.816 8.3125 204.816 9.08984C204.816 9.42969 204.93 9.69531 205.156 9.88672C205.383 10.0781 205.674 10.1738 206.029 10.1738Z" fill="#69C0FF"/>
</svg>
