<svg width="61" height="56" viewBox="0 0 61 56" fill="none" xmlns="http://www.w3.org/2000/svg">
<path d="M59.5228 40.7135L51.3128 37.6348L36.4961 43.2151C34.5719 43.9847 32.4552 44.3055 30.4669 44.3055C28.4143 44.3055 26.3618 43.9206 24.4376 43.2151L9.62094 37.6348L1.41086 40.7135C0.0638971 41.2267 -0.000244141 42.4454 -0.000244141 42.8302C-0.000244141 43.2151 0.128038 44.4337 1.41086 44.9469L26.0411 54.2473C28.8633 55.3377 32.0704 55.3377 34.8926 54.2473L59.5228 44.9469C60.8698 44.4337 60.9339 43.2151 60.9339 42.8302C60.9339 42.4454 60.8057 41.2267 59.5228 40.7135Z" fill="#D46B08"/>
<path d="M59.5228 25.3844L51.3128 22.3057L36.4961 27.886C34.5719 28.6556 32.4552 28.9764 30.4669 28.9764C28.4143 28.9764 26.3618 28.5915 24.4376 27.886L9.62094 22.3057L1.41086 25.3844C0.0638971 25.8976 -0.000244141 27.1163 -0.000244141 27.5011C-0.000244141 27.886 0.128038 29.1046 1.41086 29.6178L26.0411 38.9182C28.8633 40.0086 32.0704 40.0086 34.8926 38.9182L59.5228 29.6178C60.8698 29.1046 60.9339 27.886 60.9339 27.5011C60.9339 27.1163 60.8057 25.8976 59.5228 25.3844Z" fill="#D46B08"/>
<path d="M1.41086 14.3516L26.0411 23.6521C28.8633 24.7425 32.0704 24.7425 34.8926 23.6521L59.5228 14.3516C60.8698 13.8385 60.9339 12.5556 60.9339 12.2349C60.9339 11.8501 60.8057 10.6314 59.5228 10.1183L34.8926 0.817801C32.0704 -0.2726 28.8633 -0.2726 26.0411 0.817801L1.41086 10.1183C0.0638971 10.6314 -0.000244141 11.8501 -0.000244141 12.2349C-0.000244141 12.5556 0.128038 13.8385 1.41086 14.3516Z" fill="#FA8C16"/>
</svg>
