<svg width="12" height="10" viewBox="0 0 12 10" fill="none" xmlns="http://www.w3.org/2000/svg">
<path d="M10.9205 8.40285C10.31 9.76085 8.87858 9.99885 8.41083 9.99885C8.27347 9.99885 6.13433 10.1041 3.05932 7.39774C0.584633 5.21974 0.282258 2.87763 0.255912 2.43263C0.230285 1.99918 0.364049 0.911848 1.97616 0.103959C2.17591 0.00384751 2.57193 -0.0404858 2.6742 0.0544031C2.71958 0.0965142 4.07267 2.1624 4.10824 2.23085C4.1438 2.29918 4.16165 2.36651 4.16165 2.43251C4.16165 2.52685 4.08919 2.64485 3.94417 2.7864C3.79927 2.92796 3.64168 3.05774 3.47127 3.17563C3.30086 3.29363 3.14327 3.41863 2.99825 3.55074C2.85335 3.68274 2.7809 3.7914 2.7809 3.87629C2.79072 4.09663 2.98531 4.88585 4.46773 6.0944C5.95039 7.30329 6.6646 7.64385 6.73321 7.6674C6.80195 7.69096 6.85907 7.70263 6.90482 7.70263C6.99643 7.70263 7.11343 7.63551 7.25581 7.50107C7.39808 7.36651 7.87673 6.75785 8.0293 6.62329C8.18186 6.48896 8.30904 6.42174 8.41083 6.42174C8.48196 6.42174 8.55441 6.43818 8.62806 6.47118C8.70183 6.50418 10.9313 7.71463 10.9739 7.75507C11.0896 7.86507 11.0079 8.2084 10.9205 8.40285Z" fill="#8C8C8C"/>
</svg>
