<svg width="24" height="24" viewBox="0 0 24 24" fill="none" xmlns="http://www.w3.org/2000/svg">
<path d="M23.9918 10.9936L13.0541 -1V6.18433H11.7836C8.63617 6.18433 5.677 7.41003 3.45135 9.63568C1.22571 11.8613 0 14.8205 0 17.9681V23L2.09912 20.7C4.90704 17.6237 8.89288 15.8441 13.0541 15.8036V22.9874L23.9918 10.9936ZM1.40643 19.3844V17.9681C1.40643 15.1962 2.48584 12.5901 4.4458 10.6301C6.40576 8.67016 9.01172 7.59076 11.7836 7.59076H14.4604V2.62933L22.0886 10.9936L14.4604 19.358V14.3966H13.1986C8.7594 14.3966 4.49048 16.2084 1.40643 19.3844Z" fill="#1890FF"/>
</svg>
