<svg width="98" height="40" viewBox="0 0 98 40" fill="none" xmlns="http://www.w3.org/2000/svg">
<path d="M76.0749 13.2335C75.4057 11.8552 74.417 10.8165 72.9089 10.397C70.6018 9.7578 68.3845 9.98752 66.377 11.3958C66.1873 11.5256 65.9975 11.6554 65.7278 11.8452C65.1585 10.3371 63.9301 10.367 62.6717 10.4669C62.4819 10.4869 62.2921 10.4669 62.1124 10.4669C60.8939 10.4669 59.6754 10.4669 58.387 10.4669C58.387 10.7965 58.387 11.0562 58.387 11.3059C58.387 20.6342 58.387 29.9625 58.387 39.2909C58.387 39.5206 58.407 39.7703 58.417 40C61.0137 40 63.6005 40 66.1973 40C66.1973 37.4132 66.1973 34.8265 66.1973 32.2996C67.3558 32.4095 68.4444 32.6092 69.5431 32.6092C73.2984 32.5693 75.5556 30.8415 76.6742 27.2559C76.7241 27.0961 76.7641 26.9463 76.804 26.7765C77.5531 23.8901 77.5431 20.9538 77.2834 18.0075C77.1236 16.3496 76.804 14.7316 76.0749 13.2335ZM69.2534 25.3383C68.9039 27.0562 67.8851 27.5356 66.1573 26.9064C66.1573 26.437 66.1573 25.9476 66.1573 25.4582C66.1573 22.6617 66.1773 19.8552 66.1473 17.0587C66.1473 16.5693 66.3171 16.3196 66.7466 16.1798C66.9863 16.0999 67.226 16 67.4757 15.9201C68.5443 15.6105 69.2335 15.9601 69.3733 17.0487C69.7428 19.8052 69.8227 22.5918 69.2534 25.3383ZM45.4432 11.0861C45.4132 13.0137 45.4332 14.9413 45.4332 16.9089C44.5643 16.799 43.8052 16.6891 43.0262 16.6092C42.6367 16.5793 42.2272 16.5993 41.8277 16.6492C40.2197 16.8589 40 17.1186 40 18.7066C40 22.9214 40 27.1361 40 31.3508C40 31.6005 40 31.8602 40 32.1498C37.3933 32.1498 34.8664 32.1498 32.2697 32.1498C32.2697 24.9588 32.2697 17.7678 32.2697 10.5069C32.4295 10.4869 32.6092 10.4469 32.779 10.4469C34.4469 10.4469 36.1248 10.4569 37.8027 10.437C38.2422 10.427 38.4919 10.5668 38.6717 10.9663C38.9114 11.4757 39.211 11.9551 39.4906 12.4644C40.9189 10.1973 42.3571 9.61798 44.784 10.2672C45.2534 10.397 45.4532 10.5768 45.4432 11.0861ZM55.1411 3.90512C55.1411 6.07241 53.3933 7.82023 51.226 7.82023H51.216C50.9064 7.82023 50.5868 7.79026 50.2672 7.71036C49.568 7.53059 48.9688 7.19101 48.4894 6.7216C47.7603 6.01249 47.3009 5.01373 47.3009 3.90512C47.3009 1.94757 48.7391 0.319603 50.6267 0.0399525C50.6667 0.0199775 50.7166 0.00998752 50.7665 0C51.0462 0 51.3358 0 51.6155 0C51.6355 0.00998752 51.6554 0.0199769 51.6754 0.0299644C53.623 0.239702 55.1411 1.88764 55.1411 3.90512ZM47.3308 10.4969C49.9176 10.4969 52.4444 10.4969 55.0312 10.4969C55.0312 17.7278 55.0312 24.9388 55.0312 32.1798C52.4544 32.1798 49.9176 32.1798 47.3308 32.1798C47.3308 24.9189 47.3308 17.7278 47.3308 10.4969ZM97.3683 17.1086C97.1086 15.171 96.3496 13.3833 94.8614 12.005C93.0537 10.3271 90.8165 9.97753 88.4794 10.0874C83.9251 10.2871 81.2085 12.3146 80.0899 16.3895C79.181 19.6954 79.181 23.0512 80.0699 26.377C80.9089 29.5531 82.9363 31.5905 86.2322 32.2497C89.1685 32.839 92.0849 32.7091 94.9713 31.98C96.6392 31.5606 96.6392 31.5606 96.6392 29.8527C96.6392 28.5443 96.6392 27.236 96.6392 25.8677C95.9201 25.9975 95.3009 26.1074 94.6816 26.2172C92.8539 26.5169 91.0162 26.9064 89.1486 26.6167C87.7303 26.397 87.0911 25.4482 87.3009 23.9101C90.7366 23.9101 94.1923 23.9101 97.8777 23.9101C97.7179 21.5531 97.6679 19.3159 97.3683 17.1086ZM87.1511 19.6454C87.2609 18.437 87.3408 17.2684 87.4906 16.1099C87.5306 15.7803 87.7204 15.4307 87.9401 15.181C88.6492 14.362 89.9376 14.5818 90.1573 15.6305C90.427 16.9189 90.4669 18.2672 90.6167 19.6454C89.3583 19.6454 88.3296 19.6454 87.1511 19.6454ZM26.4569 16.1398C26.4569 19.0162 26.4569 21.8926 26.4569 24.7591C26.4569 24.9888 26.4569 25.2385 26.4769 25.4682C26.5968 26.427 26.9463 26.7566 27.9151 26.6966C28.764 26.6467 29.593 26.5169 30.5119 26.417C30.5119 28.2747 30.5119 30.0624 30.5119 31.9301C27.8352 32.4195 25.1586 32.9988 22.4419 32.3296C20.035 31.7503 18.7066 29.7628 18.6767 26.7865C18.6367 23.2709 18.6667 19.7653 18.6667 16.2497C18.6667 16 18.6667 15.7503 18.6667 15.4407C17.6979 15.4407 16.819 15.4407 15.8702 15.4407C15.8702 13.7828 15.8702 12.1748 15.8702 10.4969C16.779 10.4969 17.6879 10.4969 18.6567 10.4969C18.9463 9.04869 19.2559 7.65044 19.5056 6.2422C19.5955 5.77278 19.7453 5.51311 20.2547 5.40325C22.2921 4.94382 24.3196 4.43446 26.427 3.9251C26.427 6.11236 26.427 8.2397 26.427 10.4469C27.8252 10.4469 29.1536 10.4469 30.5518 10.4469C30.2022 12.1448 29.8727 13.7528 29.5331 15.4107C28.5243 15.4107 27.5456 15.4107 26.4869 15.4107C26.4769 15.6904 26.4569 15.9101 26.4569 16.1398ZM14.9313 26.2272C14.5218 30.1224 12.3346 32.1698 8.3995 32.5293C5.85268 32.7591 3.37578 32.4195 0.938826 31.7303C0.729089 31.6804 0.429463 31.4107 0.419476 31.2409C0.379526 29.5331 0.399501 27.8052 0.399501 26.0275C1.64794 26.2871 2.81648 26.5868 4.00499 26.7665C4.74407 26.8864 5.51311 26.9164 6.2422 26.8065C6.62172 26.7466 7.08115 26.377 7.27091 26.0175C7.53059 25.5181 7.29089 24.9688 6.81149 24.6692C6.17228 24.2697 5.48315 23.9601 4.82397 23.6105C4.06492 23.201 3.25593 22.8315 2.5568 22.3421C1.16854 21.3633 0.359551 19.985 0.129838 18.2871C0.109863 18.1273 0.0399501 17.9775 0 17.8177C0 17.3983 0 16.9688 0 16.5493C0.11985 15.98 0.189763 15.4008 0.349563 14.8414C1.08864 12.1948 3.02622 10.8864 5.57303 10.377C8.27965 9.82772 10.9563 10.0674 13.583 10.9064C14.0025 11.0462 14.1723 11.236 14.1623 11.6954C14.1323 13.2934 14.1523 14.8914 14.1523 16.4694C12.814 16.2197 11.5256 15.97 10.2272 15.7703C9.69788 15.6904 9.1186 15.6504 8.61923 15.7903C8.25967 15.8901 7.7603 16.2697 7.71036 16.5793C7.65044 16.9488 7.90012 17.5281 8.20974 17.7678C8.77903 18.2072 9.48814 18.4469 10.1273 18.7965C10.9563 19.236 11.8352 19.6155 12.5843 20.1648C14.6617 21.6529 15.181 23.8302 14.9313 26.2272Z" fill="#597EF7"/>
</svg>
