<svg width="64" height="64" viewBox="0 0 64 64" fill="none" xmlns="http://www.w3.org/2000/svg">
<mask id="path-1-inside-1" fill="white">
<path d="M64 32C64 49.6731 49.6731 64 32 64C14.3269 64 0 49.6731 0 32C0 14.3269 14.3269 0 32 0C49.6731 0 64 14.3269 64 32ZM3.2 32C3.2 47.9058 16.0942 60.8 32 60.8C47.9058 60.8 60.8 47.9058 60.8 32C60.8 16.0942 47.9058 3.2 32 3.2C16.0942 3.2 3.2 16.0942 3.2 32Z"/>
</mask>
<path d="M64 32C64 49.6731 49.6731 64 32 64C14.3269 64 0 49.6731 0 32C0 14.3269 14.3269 0 32 0C49.6731 0 64 14.3269 64 32ZM3.2 32C3.2 47.9058 16.0942 60.8 32 60.8C47.9058 60.8 60.8 47.9058 60.8 32C60.8 16.0942 47.9058 3.2 32 3.2C16.0942 3.2 3.2 16.0942 3.2 32Z" stroke="white" stroke-width="12" mask="url(#path-1-inside-1)"/>
<path d="M64 32C64 49.6731 49.6731 64 32 64C14.3269 64 0 49.6731 0 32C0 14.3269 14.3269 0 32 0C49.6731 0 64 14.3269 64 32ZM3.2 32C3.2 47.9058 16.0942 60.8 32 60.8C47.9058 60.8 60.8 47.9058 60.8 32C60.8 16.0942 47.9058 3.2 32 3.2C16.0942 3.2 3.2 16.0942 3.2 32Z" fill="#52C41A"/>
<path d="M47.2396 19.7334H44.5767C44.2034 19.7334 43.8491 19.9048 43.6205 20.1982L27.9139 40.0953L20.3824 30.5524C20.2685 30.4078 20.1233 30.2908 19.9577 30.2103C19.7921 30.1298 19.6104 30.0879 19.4262 30.0877H16.7634C16.5081 30.0877 16.3672 30.381 16.5234 30.5791L26.9577 43.7982C27.4453 44.4153 28.3824 44.4153 28.8739 43.7982L47.4796 20.221C47.6358 20.0267 47.4948 19.7334 47.2396 19.7334Z" fill="#52C41A"/>
</svg>
