<svg xmlns="http://www.w3.org/2000/svg" xmlns:xlink="http://www.w3.org/1999/xlink" viewBox="0 0 182.11 234.54"><defs><style>.cls-1{fill:#fa8d00;}.cls-2{fill:#ff7000;}.cls-3{fill:#fff;}.cls-4{fill:url(#linear-gradient);}</style><linearGradient id="linear-gradient" x1="296" y1="662.12" x2="297" y2="662.12" gradientTransform="matrix(63.07, 62.05, 62.05, -63.07, -59616.08, 23444.15)" gradientUnits="userSpaceOnUse"><stop offset="0" stop-color="#212121" stop-opacity="0.62"/><stop offset="1" stop-color="#4d4d4d" stop-opacity="0"/></linearGradient></defs><title>Asset 12</title><g id="Layer_2" data-name="Layer 2"><g id="Layer_1-2" data-name="Layer 1"><g id="_Group_" data-name="&lt;Group&gt;"><path id="_Path_" data-name="&lt;Path&gt;" class="cls-1" d="M0,158.5V17.14A17.14,17.14,0,0,1,17.14,0h94.31L182.1,70.66V172.83H0V158.5Z"/><g id="_Group_2" data-name="&lt;Group&gt;"><path id="_Path_2" data-name="&lt;Path&gt;" class="cls-2" d="M182.1,172.83v47.8c0,7.69-7.67,13.91-17.14,13.91H17.14C7.67,234.54,0,228.32,0,220.63v-47.8Z"/></g><g id="_Group_3" data-name="&lt;Group&gt;"><path id="_Compound_Path_" data-name="&lt;Compound Path&gt;" class="cls-3" d="M131.93,155.3c-27.25.08-54.5,0-81.75,0H49.6c-.42,0-.85,0-1.27-.08a18.88,18.88,0,0,1-3.95-.83,18.6,18.6,0,0,1-4.74-2.31,19.23,19.23,0,0,1-3.88-3.49,18.9,18.9,0,0,1-4.3-10c0-.42-.07-.85-.09-1.27,0-.24,0-.47,0-.7,0-12.83,0-25.65,0-38.47,0-.24,0-.47,0-.7,0-.43.05-.85.09-1.28a18.94,18.94,0,0,1,.78-3.72,20.09,20.09,0,0,1,1.28-3.07A19.82,19.82,0,0,1,35.76,86a19.1,19.1,0,0,1,3.5-3.22,18.6,18.6,0,0,1,4.68-2.43,19.28,19.28,0,0,1,4-.94c.46-.05.92-.09,1.39-.11l.7,0q41-.12,82,0l.58,0c.43,0,.85,0,1.28.09a18.34,18.34,0,0,1,3.94.85,18.72,18.72,0,0,1,8.2,5.41,19.67,19.67,0,0,1,1.93,2.6,18.84,18.84,0,0,1,1.72,3.63,18.59,18.59,0,0,1,.94,4c.05.47.09.93.11,1.39,0,.24,0,.47,0,.7,0,12.83,0,25.65,0,38.48,0,.23,0,.46,0,.69,0,.43,0,.85-.09,1.28a19.37,19.37,0,0,1-.82,3.83,18.6,18.6,0,0,1-2.31,4.74,19.15,19.15,0,0,1-3,3.49,18.58,18.58,0,0,1-6.32,3.73,18.26,18.26,0,0,1-3.71.9,7.79,7.79,0,0,1-1.14.17Zm3.18-8,.38-.12a11.36,11.36,0,0,0,3-1.52,11.11,11.11,0,0,0,2.32-2.22,11.18,11.18,0,0,0,2.37-5.82c0-.37.06-.75.07-1.12q0-19.25,0-38.49c0-.37,0-.75-.07-1.12a11.18,11.18,0,0,0-2.37-5.82,11.35,11.35,0,0,0-5.33-3.74,10.78,10.78,0,0,0-2.37-.51,10.37,10.37,0,0,0-1.12-.06c-27.27-.09-54.54,0-81.81,0h-.43c-.25,0-.51,0-.76.06a11.36,11.36,0,0,0-9.57,7.7,12.07,12.07,0,0,0-.51,2.37A10.51,10.51,0,0,0,38.86,98q-.06,19.24,0,38.49c0,.14,0,.28,0,.42s0,.56.07.84a11.33,11.33,0,0,0,2.35,5.68,11.26,11.26,0,0,0,5.34,3.74,11.25,11.25,0,0,0,2.3.51c.39,0,.79.06,1.19.07h2.71l20.26-27.2a1.56,1.56,0,0,1,.16-.2,4,4,0,0,1,.35-.36,3.77,3.77,0,0,1,1.76-.88,4.13,4.13,0,0,1,.49-.07h.5l.25,0a2.66,2.66,0,0,1,.49.1,3.69,3.69,0,0,1,1.52.82,4,4,0,0,1,.35.36l.16.2,6.48,8.7,15.93-25.44a6.55,6.55,0,0,1,.52-.66,3.71,3.71,0,0,1,2.24-1.08,7.85,7.85,0,0,1,.84,0l.82.18a7.66,7.66,0,0,1,.76.37,3.73,3.73,0,0,1,1.18,1.19l27.22,43.48Zm-72.91.46H90L76.1,129.12Zm28.21-12,9,12h27.17l-21.83-34.87-14.3,22.84ZM59.55,93.57a9.91,9.91,0,1,1-9.91,9.91A9.91,9.91,0,0,1,59.55,93.57Zm0,3.83a6.08,6.08,0,1,1-6.08,6.08A6.08,6.08,0,0,1,59.55,97.4Z"/></g><g id="_Group_4" data-name="&lt;Group&gt;"><path id="_Path_3" data-name="&lt;Path&gt;" class="cls-4" d="M111.41,0h0l70.67,70.67v59.08a1,1,0,0,1-1.26-.1c-3.35-3.34-66.26-61.92-66.26-66.65,0-20.81-3.14-62.5-3.18-63Z"/></g><g id="_Group_5" data-name="&lt;Group&gt;"><path id="_Path_4" data-name="&lt;Path&gt;" class="cls-2" d="M111.41,0h0l70.67,70.67H129.25a17.86,17.86,0,0,1-17.84-17.84V0Z"/></g><g id="_Group_6" data-name="&lt;Group&gt;"><path id="_Path_5" data-name="&lt;Path&gt;" class="cls-3" d="M53.7,184.93h9.54V207.7a25.84,25.84,0,0,1-.48,5.7,10,10,0,0,1-1.58,3.52,9.47,9.47,0,0,1-3.6,3,11,11,0,0,1-4.79,1,12.17,12.17,0,0,1-5.9-1.41,12.63,12.63,0,0,1-4.43-4.2l5.85-5.29a4.21,4.21,0,0,0,1,2.39,2.6,2.6,0,0,0,2,.84,1.91,1.91,0,0,0,1.89-1.51c.34-1,.51-3.52.51-7.55V184.93Z"/><path id="_Compound_Path_2" data-name="&lt;Compound Path&gt;" class="cls-3" d="M79.27,220h-9V184.94h10a40.45,40.45,0,0,1,8.25.57,9.6,9.6,0,0,1,4,2,10.16,10.16,0,0,1,3,4,13.59,13.59,0,0,1,1,5.36,14.12,14.12,0,0,1-1,5.52,9.71,9.71,0,0,1-3,3.92,9.15,9.15,0,0,1-3.5,1.65,28.94,28.94,0,0,1-6.44.51H79.27V220Zm0-19.29h1.82c2.31,0,3.91-.32,4.82-.95a3.63,3.63,0,0,0,1.37-3.22,3.54,3.54,0,0,0-1.35-3.14q-1.34-.93-4.74-.93H79.27v8.24Z"/><path id="_Path_6" data-name="&lt;Path&gt;" class="cls-3" d="M118.1,207.09v-7.36h18.79c0,.24,0,.51,0,.79s0,.71,0,1.27q0,9.06-4.78,14.06t-13.46,5a20.8,20.8,0,0,1-7.58-1.29,16.64,16.64,0,0,1-5.93-3.92,17.57,17.57,0,0,1-3.88-5.95,19.36,19.36,0,0,1-1.37-7.2,18.91,18.91,0,0,1,1.34-7.23,17.73,17.73,0,0,1,10-9.81,20.3,20.3,0,0,1,7.37-1.32,19.64,19.64,0,0,1,9.12,2,17.78,17.78,0,0,1,6.68,6.06l-8.3,4a10,10,0,0,0-3.34-3,8.59,8.59,0,0,0-4.16-1,8.47,8.47,0,0,0-6.76,2.87,11.6,11.6,0,0,0-2.47,7.82,11.76,11.76,0,0,0,2.47,7.89,8.47,8.47,0,0,0,6.76,2.87,10,10,0,0,0,6.08-1.78,6.84,6.84,0,0,0,2.84-4.76Z"/></g></g></g></g></svg>