<svg xmlns="http://www.w3.org/2000/svg" xmlns:xlink="http://www.w3.org/1999/xlink" viewBox="0 0 182.11 234.54"><defs><style>.cls-1{fill:#eb0005;}.cls-2{fill:#c20004;}.cls-3{fill:#fff;}.cls-4{fill:url(#linear-gradient);}</style><linearGradient id="linear-gradient" x1="94.7" y1="408.38" x2="95.7" y2="408.38" gradientTransform="matrix(63.07, 62.05, 62.05, -63.07, -31177.15, 19931.76)" gradientUnits="userSpaceOnUse"><stop offset="0" stop-color="#212121" stop-opacity="0.62"/><stop offset="1" stop-color="#4d4d4d" stop-opacity="0"/></linearGradient></defs><title>Asset 10</title><g id="Layer_2" data-name="Layer 2"><g id="Layer_1-2" data-name="Layer 1"><g id="_Group_" data-name="&lt;Group&gt;"><path id="_Path_" data-name="&lt;Path&gt;" class="cls-1" d="M0,158.5V17.14A17.14,17.14,0,0,1,17.14,0h94.31L182.1,70.66V172.83H0V158.5Z"/><g id="_Group_2" data-name="&lt;Group&gt;"><path id="_Path_2" data-name="&lt;Path&gt;" class="cls-2" d="M182.1,172.83v47.8c0,7.69-7.67,13.91-17.14,13.91H17.14C7.67,234.54,0,228.32,0,220.63v-47.8Z"/></g><g id="_Group_3" data-name="&lt;Group&gt;"><path id="_Compound_Path_" data-name="&lt;Compound Path&gt;" class="cls-3" d="M126.39,157.77h-71a4.08,4.08,0,0,1-1-.25A3.81,3.81,0,0,1,52,155a3.32,3.32,0,0,1-.13-.7c0-.11,0-.23,0-.35V64.6c0-.11,0-.23,0-.35a3.68,3.68,0,0,1,.24-1,3.91,3.91,0,0,1,1-1.45,3.83,3.83,0,0,1,1.54-.85,3.23,3.23,0,0,1,.69-.13l.36,0h70.69l.36,0,.35.05a3.28,3.28,0,0,1,.68.19,3.67,3.67,0,0,1,1.19.74,3.93,3.93,0,0,1,1,1.45,4.06,4.06,0,0,1,.24,1c0,.12,0,.24,0,.35v89.34c0,.12,0,.24,0,.35a4,4,0,0,1-.24,1,3.9,3.9,0,0,1-2.53,2.31,5.58,5.58,0,0,1-.69.13Zm-3.83-89.33h-63v81.67h63Zm-7,66.13v5.35H64.61v-5.35Zm-50.92-11.2h50.92v5.35H64.61Zm0-11.2h50.92v5.36H64.61Zm0-11.19h50.92v5.35H64.61ZM91,78.6h24.49V95.13H91ZM64.61,89.8H84.87v5.33H64.61Zm0-11.2H84.87V84H64.61Z"/></g><g id="_Group_4" data-name="&lt;Group&gt;"><path id="_Path_3" data-name="&lt;Path&gt;" class="cls-4" d="M111.41,0h0l70.67,70.67v59.08a1,1,0,0,1-1.26-.1c-3.35-3.34-66.26-61.92-66.26-66.65,0-20.81-3.14-62.5-3.18-63Z"/></g><g id="_Group_5" data-name="&lt;Group&gt;"><path id="_Path_4" data-name="&lt;Path&gt;" class="cls-2" d="M111.41,0h0l70.67,70.67H129.25a17.86,17.86,0,0,1-17.84-17.84V0Z"/></g><g id="_Group_6" data-name="&lt;Group&gt;"><path id="_Compound_Path_2" data-name="&lt;Compound Path&gt;" class="cls-3" d="M56.05,220h-9V184.94h10a40.51,40.51,0,0,1,8.25.57,9.6,9.6,0,0,1,4,2,10.26,10.26,0,0,1,3,4,13.59,13.59,0,0,1,1,5.36,14.12,14.12,0,0,1-1,5.52,9.6,9.6,0,0,1-3,3.92,9.15,9.15,0,0,1-3.5,1.65,28.94,28.94,0,0,1-6.44.51H56.05V220Zm0-19.29h1.82c2.3,0,3.91-.32,4.82-.95a3.63,3.63,0,0,0,1.37-3.22,3.54,3.54,0,0,0-1.35-3.14q-1.34-.93-4.74-.93H56.05Z"/><path id="_Compound_Path_3" data-name="&lt;Compound Path&gt;" class="cls-3" d="M78.19,220V184.94H85.5a60,60,0,0,1,11.57.76,16.59,16.59,0,0,1,6,2.57,14.93,14.93,0,0,1,5.06,5.95,20.68,20.68,0,0,1,0,16.56,15,15,0,0,1-5.06,6,16.62,16.62,0,0,1-5.8,2.53,49.26,49.26,0,0,1-10.11.75Zm9.47-7.86h1.61q5.63,0,8.22-2.31c1.72-1.54,2.59-4,2.59-7.35s-.87-5.81-2.59-7.38-4.47-2.35-8.22-2.35H87.66Z"/><path id="_Path_5" data-name="&lt;Path&gt;" class="cls-3" d="M115.79,220V184.94h21.5v7.69H125.12v6.08H136.6v7.53H125.12V220Z"/></g></g></g></g></svg>