<svg xmlns="http://www.w3.org/2000/svg" xmlns:xlink="http://www.w3.org/1999/xlink" viewBox="0 0 182.11 234.54"><defs><style>.cls-1{fill:#f0f0f0;}.cls-2{fill:#ccc;}.cls-3{fill:url(#linear-gradient);}</style><linearGradient id="linear-gradient" x1="573.75" y1="659.9" x2="574.75" y2="659.9" gradientTransform="matrix(63.07, 62.05, 62.05, -63.07, -76994.38, 6071.29)" gradientUnits="userSpaceOnUse"><stop offset="0" stop-color="#212121" stop-opacity="0.62"/><stop offset="1" stop-color="#4d4d4d" stop-opacity="0"/></linearGradient></defs><title>Asset 13</title><g id="Layer_2" data-name="Layer 2"><g id="Layer_1-2" data-name="Layer 1"><g id="_Group_" data-name="&lt;Group&gt;"><path id="_Path_" data-name="&lt;Path&gt;" class="cls-1" d="M0,158.5V17.14A17.14,17.14,0,0,1,17.14,0h94.31L182.1,70.66V172.83H0V158.5Z"/><g id="_Group_2" data-name="&lt;Group&gt;"><path id="_Path_2" data-name="&lt;Path&gt;" class="cls-2" d="M182.1,172.83v47.8c0,7.69-7.67,13.91-17.14,13.91H17.14C7.67,234.54,0,228.32,0,220.63v-47.8Z"/></g><g id="_Group_3" data-name="&lt;Group&gt;"><path id="_Path_3" data-name="&lt;Path&gt;" class="cls-3" d="M111.41,0h0l70.67,70.67v59.08a1,1,0,0,1-1.26-.1c-3.35-3.34-66.26-61.92-66.26-66.65,0-20.81-3.14-62.5-3.18-63Z"/></g><g id="_Group_4" data-name="&lt;Group&gt;"><path id="_Path_4" data-name="&lt;Path&gt;" class="cls-2" d="M111.41,0h0l70.67,70.67H129.25a17.86,17.86,0,0,1-17.84-17.84V0Z"/></g></g></g></g></svg>